<svg width="706" height="1006" viewBox="0 0 706 1006" fill="none" xmlns="http://www.w3.org/2000/svg">
<path d="M124.533 342.352C119.461 297.588 147.112 256.535 186.982 251.239C236.56 244.654 302.497 237.424 353.204 237.389C402.221 237.356 464.829 244.008 513.497 250.379C555.659 255.898 583.63 301.143 574.883 347.825L551.389 473.22C549.95 480.901 543.92 486.399 536.937 486.399H153.861C146.424 486.399 140.148 480.186 139.209 471.895L124.533 342.352Z" fill="#8C4D2E"/>
<path d="M508.287 483.079L544.474 481.419L559.982 409.206L574.752 326.203L522.319 325.373C522.319 325.373 518.626 367.705 515.672 402.566C512.832 436.084 508.287 483.079 508.287 483.079Z" fill="#64361F" fill-opacity="0.8"/>
<path fill-rule="evenodd" clip-rule="evenodd" d="M545.608 471.851L569.102 346.457C577.158 303.463 551.402 262.025 512.813 256.975C464.183 250.61 401.862 243.996 353.207 244.03C302.871 244.063 237.223 251.253 187.676 257.833C151.171 262.682 125.723 300.293 130.393 341.514L145.069 471.057C145.633 476.031 149.399 479.759 153.861 479.759H536.937C541.127 479.759 544.744 476.461 545.608 471.851ZM186.982 251.239C147.111 256.535 119.461 297.588 124.532 342.352L139.209 471.895C140.148 480.186 146.424 486.399 153.861 486.399H536.937C543.92 486.399 549.95 480.901 551.389 473.22L574.883 347.825C583.63 301.143 555.659 255.898 513.497 250.379C464.829 244.008 402.221 237.356 353.204 237.389C302.497 237.424 236.56 244.654 186.982 251.239Z" fill="black"/>
<path d="M353.204 237.389C302.497 237.424 236.56 244.654 186.982 251.239C147.111 256.535 119.461 297.588 124.533 342.352L128.13 374.109C131.017 399.593 157.382 413.087 177.484 400.859C206.532 383.19 245.366 363.89 277.877 362.724C316.997 361.323 337.035 387.906 376.097 385.135C430.697 381.262 448.688 312.539 503.118 318.733C512.37 319.785 522.729 323.3 532.618 327.649C553.717 336.925 579.212 324.724 583.881 299.806C587.744 279.187 575.431 259.218 556.845 256.449C508.502 249.242 418.716 237.346 353.204 237.389Z" fill="#5A2E25"/>
<path d="M566.869 254.038L532.525 249.01C532.525 249.01 532.649 274.568 530.442 290.512C528.312 305.895 522.319 327.033 522.319 327.033L538.566 334.48L559.982 332.013L576.967 322.053L585.091 309.602L587.306 294.662L585.091 278.891L578.561 265.768L566.869 254.038Z" fill="#3E211B"/>
<path d="M580.249 295.48C579.241 304.577 571.974 321.55 566.577 320.794C561.18 320.041 565.697 302.452 566.704 293.354C567.713 284.256 567.234 267.251 572.63 268.006C578.026 268.761 581.257 286.381 580.249 295.48Z" fill="#2B1612"/>
<path d="M187.781 246.52L233.568 244.03C233.568 244.03 168.538 257.719 150.118 302.132C135.496 337.387 148.641 405.056 148.641 405.056L136.825 395.926L127.225 380.155L122.794 352.764V325.373L123.532 305.452L140.518 273.911L158.242 257.31L187.781 246.52Z" fill="#84473A"/>
<path fill-rule="evenodd" clip-rule="evenodd" d="M186.289 244.646C235.896 238.057 302.125 230.784 353.199 230.749C419.148 230.704 509.284 242.662 557.622 249.865C579.687 253.153 594.22 276.851 589.662 301.176C584.092 330.899 554.26 344.294 530.466 333.833C520.796 329.581 511.007 326.304 502.523 325.34C477.984 322.548 461.609 336.343 443.442 353.272C442.495 354.154 441.544 355.043 440.587 355.94C423.532 371.91 404.449 389.779 376.469 391.762C355.583 393.243 339.772 386.809 324.965 380.673L324.414 380.446C309.776 374.38 296.106 368.716 278.065 369.361C247.05 370.472 209.277 389.071 180.296 406.7C156.943 420.905 125.737 405.557 122.27 374.948L118.672 343.192C113.199 294.886 143.053 250.388 186.289 244.646ZM186.982 251.239C236.56 244.654 302.497 237.424 353.204 237.389C418.716 237.346 508.502 249.242 556.845 256.449C575.431 259.218 587.744 279.187 583.881 299.806C579.212 324.724 553.717 336.925 532.618 327.649C522.729 323.3 512.37 319.785 503.118 318.733C474.608 315.489 456.094 332.8 437.08 350.579C419.795 366.742 402.097 383.291 376.097 385.135C356.207 386.546 341.249 380.346 326.193 374.106C311.681 368.09 297.077 362.037 277.877 362.724C245.366 363.89 206.532 383.19 177.484 400.859C157.382 413.088 131.017 399.593 128.13 374.109L124.533 342.352C119.461 297.588 147.112 256.535 186.982 251.239Z" fill="black"/>
<path d="M260.154 329.523C260.154 331.816 258.501 333.673 256.461 333.673C254.421 333.673 252.769 331.816 252.769 329.523C252.769 327.231 254.421 325.373 256.461 325.373C258.501 325.373 260.154 327.231 260.154 329.523Z" fill="#F6F8F9"/>
<path fill-rule="evenodd" clip-rule="evenodd" d="M264.585 329.523C264.585 334.566 260.947 338.653 256.461 338.653C251.974 338.653 248.338 334.566 248.338 329.523C248.338 324.48 251.974 320.393 256.461 320.393C260.947 320.393 264.585 324.48 264.585 329.523ZM256.461 333.673C258.501 333.673 260.154 331.816 260.154 329.523C260.154 327.231 258.501 325.373 256.461 325.373C254.421 325.373 252.769 327.231 252.769 329.523C252.769 331.816 254.421 333.673 256.461 333.673Z" fill="black"/>
<path d="M415.237 279.721C415.237 282.014 413.584 283.871 411.545 283.871C409.505 283.871 407.852 282.014 407.852 279.721C407.852 277.429 409.505 275.571 411.545 275.571C413.584 275.571 415.237 277.429 415.237 279.721Z" fill="#F6F8F9"/>
<path fill-rule="evenodd" clip-rule="evenodd" d="M419.668 279.721C419.668 284.764 416.03 288.851 411.545 288.851C407.058 288.851 403.421 284.764 403.421 279.721C403.421 274.678 407.058 270.591 411.545 270.591C416.03 270.591 419.668 274.678 419.668 279.721ZM411.545 283.871C413.585 283.871 415.237 282.014 415.237 279.721C415.237 277.429 413.585 275.571 411.545 275.571C409.505 275.571 407.852 277.429 407.852 279.721C407.852 282.014 409.505 283.871 411.545 283.871Z" fill="black"/>
<path d="M70.3505 580.555C64.6539 535.009 92.9896 493.021 133.659 487.922C198.052 479.849 292.068 469.842 362.804 469.799C431.574 469.757 521.353 479.077 585.25 487.007C628.455 492.369 657.091 539.043 647.247 586.629L614.665 744.15C613.108 751.668 607.147 756.99 600.277 756.99H105.257C97.8939 756.99 91.6557 750.896 90.6307 742.7L70.3505 580.555Z" fill="#8C4D2E"/>
<path d="M609.461 753.67L636.785 616.715L542.542 639.955C542.542 639.955 543.793 653.226 542.542 687.267C541.307 720.929 538.566 754.5 538.566 754.5L609.461 753.67Z" fill="#64361F" fill-opacity="0.8"/>
<path d="M240.232 627.872C239.567 633.785 227.037 608.427 185.764 602.562C144.49 596.696 138.309 594.294 138.974 588.382C139.639 582.469 146.899 575.286 188.173 581.151C229.446 587.018 240.898 621.96 240.232 627.872Z" fill="#7C4226"/>
<path d="M104.906 638.795C109.246 672.536 108.111 700.644 102.37 701.577C96.6297 702.51 91.7621 672.216 87.4217 638.476C83.0813 604.736 80.9114 580.326 86.652 579.393C92.3928 578.46 100.565 605.054 104.906 638.795Z" fill="#995D49"/>
<path fill-rule="evenodd" clip-rule="evenodd" d="M608.909 742.645L641.493 585.125C650.557 541.311 624.196 498.519 584.602 493.606C520.728 485.679 431.227 476.397 362.807 476.439C292.426 476.482 198.692 486.449 134.314 494.522C97.0302 499.197 70.9568 537.704 76.201 579.632L96.4811 741.776C97.0961 746.693 100.839 750.35 105.257 750.35H600.277C604.4 750.35 607.977 747.156 608.909 742.645ZM133.659 487.922C92.9895 493.021 64.6539 535.009 70.3505 580.555L90.6307 742.7C91.6557 750.896 97.8939 756.99 105.257 756.99H600.277C607.147 756.99 613.108 751.668 614.665 744.15L647.247 586.629C657.091 539.043 628.455 492.369 585.25 487.007C521.353 479.077 431.574 469.757 362.804 469.799C292.068 469.842 198.052 479.849 133.659 487.922Z" fill="black"/>
<path d="M84.2346 458.877C87.1148 470.249 101.124 482.462 101.124 482.462L174.781 474.259C174.781 474.259 190.33 452.489 188.91 436.612C186.873 413.866 160.953 416.602 149.56 398.261C143.747 406.361 148.527 414.867 144.697 424.341C133.74 451.443 76.9823 430.246 84.2346 458.877Z" fill="#F40236"/>
<path d="M144.748 435.103C145.044 435.897 138.996 439.507 131.239 443.171C123.483 446.833 117.206 446.556 116.91 445.763C116.614 444.971 122.41 443.963 130.167 440.301C137.923 436.637 144.452 434.311 144.748 435.103Z" fill="black"/>
<path d="M105.372 444.547C106.953 445.756 100.691 451.755 96.609 458.512C92.5265 465.267 93.8763 470.224 92.2943 469.017C90.7125 467.808 84.6834 459.007 88.7658 452.25C92.8483 445.494 103.79 443.341 105.372 444.547Z" fill="#F05D7C"/>
<path d="M176.252 477.533L142.651 480.397C142.651 480.397 158.736 460.906 158.602 446.06C158.389 422.595 149.396 395.901 149.396 395.901C149.396 395.901 156.507 402.981 163.012 408.214C169.518 413.448 182.962 419.603 182.962 419.603C182.962 419.603 191.028 433.217 191.512 443.126C192.245 458.118 176.252 477.533 176.252 477.533Z" fill="#990022"/>
<path d="M152.837 469.266C143.741 483.089 135.083 481.658 133.853 480.636C132.623 479.613 141.292 478.936 150.388 465.111C159.484 451.287 157.115 439.541 158.345 440.563C159.575 441.586 161.934 455.441 152.837 469.266Z" fill="black"/>
<path fill-rule="evenodd" clip-rule="evenodd" d="M97.5032 487.707L101.124 482.462L174.781 474.259L179.388 478.416L177.832 480.592L99.3636 489.329L97.5032 487.707ZM153.561 403.371C158.123 408.077 163.802 411.062 169.269 413.936C178.834 418.964 187.749 423.651 188.91 436.612C190.331 452.489 174.781 474.259 174.781 474.259C179.388 478.416 179.388 478.416 179.389 478.414L179.41 478.385L179.455 478.32C179.492 478.267 179.544 478.194 179.609 478.099C179.741 477.911 179.924 477.644 180.154 477.304C180.612 476.625 181.254 475.65 182.017 474.435C183.535 472.015 185.549 468.602 187.529 464.641C191.291 457.109 195.696 446.105 194.788 435.948C193.429 420.77 183.643 414.351 175.324 409.812C174.041 409.112 172.793 408.449 171.579 407.807C164.303 403.947 158.329 400.78 154.404 394.46L149.901 387.212L144.962 394.093C140.714 400.011 140.488 406.167 140.477 410.768C140.476 411.205 140.476 411.625 140.476 412.032C140.477 416.117 140.478 418.727 139.319 421.594C137.6 425.843 133.933 428.757 127.913 430.784C122.167 432.718 115.39 433.485 108.303 434.287C107.884 434.333 107.464 434.381 107.042 434.429C100.064 435.223 92.1074 436.152 86.4822 439.25C83.466 440.912 80.5287 443.493 78.9063 447.577C77.2863 451.656 77.4031 456.158 78.5524 460.697C80.4231 468.082 85.5729 474.986 89.519 479.558C91.5977 481.965 93.5698 483.981 95.0217 485.395C95.7501 486.104 96.3542 486.668 96.7834 487.062C96.9982 487.258 97.1697 487.412 97.2915 487.522C97.3525 487.575 97.4013 487.618 97.4367 487.649L97.4801 487.688L97.4941 487.701L97.4993 487.704L97.5014 487.706C97.5023 487.707 97.5032 487.707 101.124 482.462C101.124 482.462 87.1148 470.249 84.2346 458.877C80.4908 444.098 93.8042 442.595 109.069 440.874C123.376 439.26 139.396 437.452 144.697 424.341C146.415 420.091 146.401 416.037 146.387 412.126C146.379 409.709 146.37 407.345 146.772 405.026C147.169 402.732 147.966 400.483 149.56 398.261C150.75 400.177 152.099 401.864 153.561 403.371Z" fill="black"/>
<path d="M291.128 426.438C295.885 405.313 323.821 417.261 331.943 394.671C346.057 407.566 344.878 410.415 355.103 417.58C371.595 429.135 395.836 413.204 402.783 433.604C406.821 445.462 399.518 465.909 399.518 465.909L302.438 468.366C302.438 468.366 287.392 443.025 291.128 426.438Z" fill="#F40236"/>
<path d="M399.233 467.496L369.276 466.278C369.276 466.278 375.571 453.518 374.693 444.712C373.579 433.568 359.87 421.836 359.87 421.836L396.205 424.824L404.734 437.333L399.233 467.496Z" fill="#990022"/>
<path d="M333.123 445.137C342.447 454.046 343.828 459.453 348.212 463.641C348.212 463.641 338.858 458.789 329.535 449.88C320.211 440.97 322.065 425.018 323.056 423.709C324.047 422.397 323.8 436.226 333.123 445.137Z" fill="black"/>
<path d="M390.351 450.022C391.118 460.819 385.563 466.379 384.229 466.498C382.896 466.618 386.288 461.253 385.522 450.456C384.755 439.657 374.143 434.61 375.477 434.491C376.81 434.371 389.585 439.224 390.351 450.022Z" fill="black"/>
<path fill-rule="evenodd" clip-rule="evenodd" d="M330.702 389.259L333.805 392.094C340.524 398.232 343.878 402.174 346.546 405.308C346.738 405.536 346.927 405.757 347.113 405.976C349.757 409.072 351.829 411.373 356.666 414.761C360.243 417.269 364.337 418.355 368.785 418.782C372.04 419.094 375.279 419.044 378.584 418.992C379.886 418.972 381.199 418.952 382.527 418.954C387.039 418.961 391.734 419.223 395.806 421.031C400.078 422.925 403.507 426.441 405.542 432.417C407.9 439.341 406.881 448.278 405.547 454.933C404.86 458.364 404.043 461.399 403.399 463.577C403.077 464.666 402.797 465.547 402.594 466.16C402.494 466.467 402.413 466.708 402.355 466.874C402.326 466.957 402.303 467.021 402.287 467.068L402.268 467.121L402.263 467.138L402.261 467.143V467.144C402.261 467.146 402.259 467.146 399.518 465.909L402.261 467.144L401.534 469.179L300.883 471.726L299.982 470.209L302.438 468.366C299.982 470.209 299.982 470.209 299.981 470.207L299.976 470.2L299.966 470.182L299.927 470.117C299.896 470.063 299.851 469.985 299.792 469.883C299.675 469.679 299.507 469.385 299.297 469.007C298.876 468.251 298.284 467.162 297.588 465.806C296.198 463.099 294.38 459.304 292.678 454.961C290.981 450.628 289.37 445.678 288.429 440.673C287.493 435.696 287.178 430.445 288.264 425.623C289.674 419.358 292.885 415.45 296.898 412.86C300.625 410.455 305.094 409.168 309.191 407.988C309.308 407.955 309.423 407.921 309.54 407.886C318.32 405.357 325.77 402.976 329.204 393.426L330.702 389.259ZM304.039 465.004L397.443 462.64C397.55 462.292 397.669 461.905 397.793 461.482C398.392 459.455 399.15 456.636 399.784 453.474C401.092 446.941 401.704 439.725 400.024 434.791C398.586 430.568 396.381 428.425 393.636 427.206C390.696 425.902 386.997 425.601 382.519 425.594C381.377 425.593 380.18 425.611 378.943 425.631C375.539 425.682 371.851 425.739 368.282 425.397C363.33 424.922 358.208 423.667 353.541 420.397C348.153 416.622 345.702 413.914 342.849 410.572C342.661 410.352 342.471 410.128 342.277 409.9C340.087 407.325 337.503 404.291 332.913 399.895C327.724 409.502 318.667 412.111 311.237 414.253C311.16 414.276 311.083 414.298 311.006 414.319C306.603 415.589 302.837 416.683 299.84 418.617C297.024 420.435 294.959 422.955 293.991 427.253C293.209 430.724 293.374 434.861 294.209 439.3C295.039 443.712 296.489 448.208 298.086 452.283C299.679 456.35 301.39 459.926 302.706 462.488C303.224 463.5 303.679 464.35 304.039 465.004Z" fill="black"/>
<path d="M594.687 486.381C594.687 486.381 616.765 464.427 616.651 445.917C616.524 425.126 606.055 409.316 588.376 403.208C587.246 414.902 584.243 422.037 576.917 430.437C565.962 442.999 549.364 430.439 538.445 443.038C529.314 453.573 527.02 478.439 527.02 478.439L594.687 486.381Z" fill="#F40236"/>
<path d="M593.303 486.33L578.168 482.658C578.168 482.658 597.545 465.21 600.62 449.221C604.106 431.088 588.783 403.618 588.783 403.618L601.707 411.881L611.681 426.265L616.004 444.335L615.665 456.004L607.599 471.281L593.303 486.33Z" fill="#990022"/>
<path d="M610.697 446.476C610.46 454.639 605.117 463.402 603.97 463.361C602.824 463.318 605.639 453.683 605.877 445.52C606.113 437.358 604.535 428.338 605.682 428.38C606.829 428.423 610.935 438.314 610.697 446.476Z" fill="black"/>
<path d="M570.114 454.441C570.918 455.363 564.697 452.859 554.594 463.995C544.49 475.129 539.543 481.349 538.74 480.428C537.936 479.507 542.551 470.386 552.653 459.251C562.756 448.115 569.311 453.522 570.114 454.441Z" fill="black"/>
<path fill-rule="evenodd" clip-rule="evenodd" d="M585.823 398.854L589.243 400.034C608.157 406.568 619.469 423.656 619.605 445.894C619.638 451.234 618.079 456.608 615.914 461.522C613.738 466.46 610.857 471.14 608.025 475.152C605.188 479.175 602.355 482.59 600.234 484.997C599.172 486.203 598.283 487.161 597.657 487.822C597.344 488.152 597.096 488.41 596.923 488.586C596.837 488.674 596.769 488.742 596.724 488.788L596.667 488.843L596.653 488.86L596.648 488.865L596.645 488.866C596.645 488.866 596.645 488.866 594.687 486.381L596.645 488.866L595.672 489.834L523.778 481.398L524.082 478.097L527.02 478.439C524.082 478.097 524.082 478.097 524.082 478.097V478.087L524.084 478.069L524.091 478.006C524.096 477.953 524.103 477.875 524.113 477.775C524.134 477.578 524.165 477.291 524.206 476.925C524.291 476.193 524.421 475.147 524.605 473.861C524.973 471.294 525.562 467.753 526.447 463.866C528.177 456.267 531.179 446.661 536.328 440.723C542.666 433.41 550.68 433.407 557.322 433.403C557.437 433.403 557.551 433.403 557.666 433.403C564.729 433.398 570.316 433.262 574.808 428.113C578.316 424.09 580.673 420.505 582.299 416.638C583.927 412.772 584.897 408.451 585.438 402.85L585.823 398.854ZM530.357 475.493L593.669 482.923C594.247 482.312 595.062 481.431 596.037 480.325C598.051 478.038 600.729 474.807 603.397 471.027C606.071 467.237 608.689 462.958 610.621 458.575C612.563 454.166 613.721 449.853 613.697 445.939C613.588 427.934 605.237 414.09 590.811 407.682C590.163 412.02 589.164 415.857 587.64 419.477C585.652 424.202 582.844 428.383 579.026 432.761C572.681 440.037 564.673 440.04 558.04 440.044C557.916 440.044 557.792 440.044 557.669 440.044C550.609 440.049 545.033 440.195 540.56 445.356C536.578 449.949 533.87 458.044 532.17 465.512C531.34 469.158 530.785 472.493 530.438 474.917C530.41 475.116 530.382 475.307 530.357 475.493Z" fill="black"/>
<path d="M198.602 376.888C198.336 372.313 201.42 368.364 205.489 368.065L214.332 367.416C218.402 367.117 221.917 370.583 222.183 375.157L227.859 472.893L204.278 474.623L198.602 376.888Z" fill="#1DB5D3"/>
<path fill-rule="evenodd" clip-rule="evenodd" d="M214.621 372.384L205.778 373.033C204.149 373.153 202.916 374.733 203.022 376.563L208.412 469.329L223.149 468.248L217.761 375.482C217.655 373.653 216.249 372.265 214.621 372.384ZM205.489 368.065C201.42 368.364 198.336 372.313 198.602 376.888L204.278 474.623L227.859 472.893L222.183 375.157C221.917 370.583 218.402 367.117 214.332 367.416L205.489 368.065Z" fill="black"/>
<path d="M210.223 428.262C211.444 428.179 211.944 419.013 211.34 407.789C210.735 396.565 209.255 387.534 208.033 387.617C206.812 387.7 206.312 396.866 206.917 408.09C207.521 419.314 209.002 428.346 210.223 428.262Z" fill="#E2F2F2"/>
<path d="M218.567 466.552C220.026 466.452 220.53 453.761 219.692 438.204C218.853 422.647 216.991 410.116 215.532 410.216C214.072 410.315 213.569 423.007 214.407 438.563C215.245 454.12 217.107 466.651 218.567 466.552Z" fill="#0E5260"/>
<path fill-rule="evenodd" clip-rule="evenodd" d="M224.774 467L205.722 459.838L206.659 456.689L225.71 463.851L224.774 467Z" fill="black"/>
<path fill-rule="evenodd" clip-rule="evenodd" d="M224.08 450.399L205.026 443.238L205.964 440.088L225.016 447.25L224.08 450.399Z" fill="black"/>
<path fill-rule="evenodd" clip-rule="evenodd" d="M221.756 433.798L202.703 426.637L203.64 423.488L222.693 430.649L221.756 433.798Z" fill="black"/>
<path fill-rule="evenodd" clip-rule="evenodd" d="M220.907 417.198L201.854 410.036L202.792 406.887L221.844 414.049L220.907 417.198Z" fill="black"/>
<path fill-rule="evenodd" clip-rule="evenodd" d="M220.058 400.596L201.005 393.436L201.943 390.286L220.994 397.446L220.058 400.596Z" fill="black"/>
<path fill-rule="evenodd" clip-rule="evenodd" d="M220.126 383.995L201.074 376.835L202.011 373.686L221.064 380.846L220.126 383.995Z" fill="black"/>
<path d="M211.955 360.263L207.029 360.334L207.142 370.294L212.068 370.223L211.955 360.263Z" fill="black"/>
<path d="M198.141 356.944C195.89 354.087 193.637 351.116 192.206 347.571C190.774 343.8 190.364 339.457 191.081 335.343C191.797 331.228 193.434 327.342 195.786 324.028C195.583 326.885 196.503 329.857 198.243 332.028C197.219 326.542 198.857 320.599 202.13 316.256C205.405 311.913 209.906 309.054 214.614 307.112C212.261 309.855 211.954 314.199 212.874 317.856C213.795 321.513 215.739 324.714 217.479 328.027C219.217 331.343 220.855 334.771 220.957 338.542C221.879 336.6 222.901 334.656 223.515 332.485C224.13 330.313 224.437 328.027 223.925 325.856C225.766 328.371 226.79 330.884 227.301 334.085C227.813 337.286 227.71 340.601 227.404 343.8C226.995 347.344 226.175 351.001 224.437 353.973C222.39 357.515 219.115 360.03 215.535 361.401C209.19 362.658 202.95 361.63 198.141 356.944Z" fill="black"/>
<path d="M197.844 358.754C195.683 355.983 193.522 353.101 192.147 349.666C190.772 346.009 190.379 341.798 191.066 337.807C191.754 333.818 193.326 330.049 195.584 326.835C195.388 329.606 196.272 332.488 197.943 334.593C196.961 329.274 198.532 323.51 201.675 319.299C204.818 315.087 209.14 312.317 213.658 310.432C211.4 313.092 211.104 317.303 211.989 320.851C212.872 324.397 214.739 327.499 216.41 330.713C218.079 333.929 219.65 337.252 219.749 340.911C220.632 339.027 221.615 337.143 222.204 335.036C222.793 332.931 223.089 330.713 222.597 328.608C224.365 331.047 225.348 333.484 225.839 336.588C226.331 339.691 226.232 342.905 225.938 346.009C225.545 349.444 224.759 352.991 223.089 355.872C221.124 359.308 217.981 361.747 214.543 363.076C208.453 364.295 202.461 363.297 197.844 358.754Z" fill="#E35942"/>
<path d="M206.038 362.877C214.032 366.327 221.929 355.873 217.542 347.79C217.542 347.683 217.445 347.683 217.445 347.575C217.835 351.994 216.86 355.226 215.007 357.059C215.981 354.472 215.299 351.454 214.129 348.868C212.959 346.389 211.302 344.127 210.035 341.756C208.768 339.278 207.793 336.475 208.378 333.673C206.038 335.614 204.381 338.522 203.699 341.648C203.016 344.772 203.406 348.222 204.674 351.132C203.211 349.945 202.139 348.006 202.042 345.959C200.48 348.006 199.506 350.701 199.603 353.395C199.603 357.598 202.626 361.37 206.038 362.877Z" fill="#FFD15C"/>
<path d="M336.403 369.048C336.437 364.464 339.769 360.777 343.849 360.815L352.709 360.897C356.788 360.933 360.067 364.68 360.035 369.263L359.324 467.204L335.694 466.988L336.403 369.048Z" fill="#1DB5D3"/>
<path fill-rule="evenodd" clip-rule="evenodd" d="M352.674 365.877L343.812 365.796C342.181 365.781 340.847 367.255 340.834 369.087L340.161 462.049L354.93 462.184L355.604 369.224C355.617 367.389 354.306 365.892 352.674 365.877ZM343.849 360.815C339.769 360.777 336.437 364.464 336.403 369.048L335.694 466.988L359.324 467.204L360.035 369.263C360.067 364.68 356.788 360.933 352.709 360.897L343.849 360.815Z" fill="black"/>
<path d="M344.645 421.241C345.869 421.259 346.965 412.158 347.093 400.915C347.222 389.671 346.335 380.542 345.111 380.524C343.888 380.507 342.791 389.607 342.663 400.851C342.534 412.094 343.422 421.223 344.645 421.241Z" fill="#E2F2F2"/>
<path d="M350.47 460.115C351.932 460.136 353.262 447.52 353.44 431.936C353.619 416.352 352.578 403.702 351.116 403.68C349.654 403.659 348.325 416.275 348.146 431.859C347.968 447.443 349.009 460.094 350.47 460.115Z" fill="#0E5260"/>
<path fill-rule="evenodd" clip-rule="evenodd" d="M356.632 461.072L338.097 452.361L339.237 449.299L357.771 458.009L356.632 461.072Z" fill="black"/>
<path fill-rule="evenodd" clip-rule="evenodd" d="M357.02 444.459L338.487 435.749L339.626 432.685L358.161 441.397L357.02 444.459Z" fill="black"/>
<path fill-rule="evenodd" clip-rule="evenodd" d="M355.786 427.711L337.251 419.001L338.391 415.938L356.926 424.648L355.786 427.711Z" fill="black"/>
<path fill-rule="evenodd" clip-rule="evenodd" d="M356.02 411.085L337.487 402.375L338.626 399.312L357.161 408.023L356.02 411.085Z" fill="black"/>
<path fill-rule="evenodd" clip-rule="evenodd" d="M356.257 394.46L337.722 385.75L338.862 382.687L357.397 391.395L356.257 394.46Z" fill="black"/>
<path fill-rule="evenodd" clip-rule="evenodd" d="M357.407 377.909L338.873 369.199L340.013 366.136L358.546 374.846L357.407 377.909Z" fill="black"/>
<path d="M350.805 353.569L345.888 353.234L345.352 363.176L350.269 363.511L350.805 353.569Z" fill="black"/>
<path d="M337.243 349.12C335.185 346.084 333.134 342.935 331.937 339.284C330.754 335.405 330.628 331.039 331.612 326.995C332.594 322.951 334.48 319.209 337.043 316.098C336.653 318.93 337.378 321.97 338.97 324.279C338.307 318.723 340.327 312.931 343.877 308.869C347.424 304.808 352.1 302.328 356.921 300.779C354.396 303.321 353.806 307.627 354.487 311.35C355.167 315.074 356.896 318.426 358.416 321.874C359.934 325.323 361.343 328.877 361.2 332.647C362.244 330.785 363.392 328.932 364.145 326.816C364.9 324.701 365.355 322.446 364.986 320.238C366.659 322.898 367.516 325.491 367.817 328.725C368.118 331.958 367.801 335.255 367.285 338.421C366.646 341.92 365.591 345.501 363.664 348.322C361.392 351.687 357.963 353.924 354.301 354.997C347.893 355.729 341.735 354.188 337.243 349.12Z" fill="black"/>
<path d="M336.83 350.9C334.855 347.96 332.889 344.907 331.742 341.368C330.607 337.606 330.491 333.374 331.436 329.452C332.383 325.529 334.195 321.9 336.659 318.88C336.282 321.628 336.976 324.574 338.503 326.812C337.871 321.427 339.813 315.808 343.224 311.867C346.633 307.926 351.124 305.519 355.753 304.011C353.326 306.478 352.758 310.653 353.408 314.264C354.059 317.873 355.718 321.121 357.174 324.465C358.629 327.808 359.98 331.253 359.84 334.908C360.844 333.102 361.946 331.304 362.671 329.253C363.396 327.201 363.835 325.014 363.482 322.875C365.088 325.451 365.907 327.964 366.195 331.1C366.482 334.234 366.175 337.432 365.678 340.503C365.063 343.898 364.048 347.369 362.196 350.106C360.011 353.37 356.718 355.543 353.202 356.585C347.049 357.301 341.138 355.812 336.83 350.9Z" fill="#E35942"/>
<path d="M344.733 355.687C352.482 359.786 361.039 350.01 357.19 341.588C357.198 341.481 357.1 341.474 357.108 341.366C357.208 345.805 356.025 348.948 354.058 350.623C355.199 348.124 354.715 345.058 353.716 342.382C352.712 339.814 351.207 337.42 350.096 334.952C348.994 332.375 348.206 329.501 348.971 326.754C346.512 328.497 344.668 331.261 343.784 334.322C342.9 337.384 343.064 340.855 344.138 343.861C342.757 342.558 341.813 340.534 341.85 338.486C340.161 340.398 339.013 343.004 338.935 345.7C338.661 349.892 341.429 353.903 344.733 355.687Z" fill="#FFD15C"/>
<path d="M481.411 372.764C481.959 368.221 485.678 365.037 489.72 365.651L498.502 366.987C502.544 367.603 505.376 371.783 504.83 376.327L493.142 473.386L469.723 469.824L481.411 372.764Z" fill="#1DB5D3"/>
<path fill-rule="evenodd" clip-rule="evenodd" d="M497.907 371.923L489.125 370.586C487.509 370.341 486.02 371.614 485.802 373.432L474.71 465.556L489.345 467.782L500.439 375.658C500.657 373.842 499.525 372.169 497.907 371.923ZM489.72 365.651C485.678 365.037 481.959 368.221 481.411 372.764L469.723 469.824L493.142 473.386L504.83 376.327C505.376 371.783 502.544 367.603 498.502 366.987L489.72 365.651Z" fill="black"/>
<path d="M483.735 425.709C484.947 425.9 487.055 417.027 488.443 405.891C489.832 394.756 489.975 385.574 488.764 385.383C487.552 385.192 485.444 394.065 484.055 405.2C482.667 416.336 482.524 425.518 483.735 425.709Z" fill="#E2F2F2"/>
<path d="M485.153 465.098C486.601 465.326 489.335 452.999 491.259 437.565C493.184 422.13 493.57 409.433 492.122 409.205C490.675 408.977 487.941 421.304 486.016 436.739C484.092 452.173 483.705 464.87 485.153 465.098Z" fill="#0E5260"/>
<path fill-rule="evenodd" clip-rule="evenodd" d="M491.157 466.92L473.748 455.653L475.222 452.776L492.631 464.043L491.157 466.92Z" fill="black"/>
<path fill-rule="evenodd" clip-rule="evenodd" d="M493.407 450.495L475.998 439.229L477.472 436.35L494.881 447.617L493.407 450.495Z" fill="black"/>
<path fill-rule="evenodd" clip-rule="evenodd" d="M494.06 433.706L476.65 422.439L478.124 419.562L495.534 430.829L494.06 433.706Z" fill="black"/>
<path fill-rule="evenodd" clip-rule="evenodd" d="M496.159 417.246L478.749 405.979L480.223 403.102L497.633 414.369L496.159 417.246Z" fill="black"/>
<path fill-rule="evenodd" clip-rule="evenodd" d="M498.257 400.785L480.847 389.52L482.321 386.641L499.731 397.908L498.257 400.785Z" fill="black"/>
<path fill-rule="evenodd" clip-rule="evenodd" d="M501.254 384.529L483.845 373.264L485.319 370.386L502.728 381.652L501.254 384.529Z" fill="black"/>
<path d="M497.435 359.449L492.594 358.42L490.947 368.207L495.787 369.236L497.435 359.449Z" fill="black"/>
<path d="M484.48 353.114C482.778 349.811 481.096 346.396 480.318 342.604C479.579 338.589 479.946 334.241 481.374 330.368C482.802 326.495 485.091 323.051 487.983 320.326C487.279 323.082 487.657 326.2 488.979 328.716C488.943 323.11 491.598 317.65 495.574 314.124C499.55 310.598 504.467 308.8 509.422 307.946C506.632 310.11 505.564 314.299 505.821 318.089C506.078 321.878 507.419 325.448 508.539 329.085C509.658 332.72 510.658 336.447 510.092 340.166C511.337 338.468 512.683 336.791 513.668 334.8C514.653 332.808 515.358 330.637 515.24 328.394C516.601 331.269 517.16 333.962 517.096 337.213C517.033 340.463 516.347 343.688 515.482 346.756C514.455 350.138 513.008 353.541 510.778 356.064C508.147 359.081 504.495 360.815 500.742 361.362C494.302 361.179 488.366 358.778 484.48 353.114Z" fill="black"/>
<path d="M483.87 354.823C482.241 351.624 480.632 348.318 479.891 344.645C479.188 340.753 479.547 336.537 480.925 332.78C482.303 329.023 484.508 325.68 487.291 323.034C486.608 325.705 486.966 328.726 488.231 331.163C488.208 325.73 490.766 320.433 494.59 317.005C498.414 313.578 503.139 311.827 507.901 310.987C505.217 313.09 504.184 317.152 504.424 320.826C504.664 324.498 505.946 327.956 507.016 331.479C508.085 335.001 509.038 338.61 508.49 342.218C509.688 340.568 510.983 338.941 511.933 337.008C512.882 335.076 513.562 332.968 513.453 330.795C514.755 333.579 515.288 336.188 515.222 339.339C515.156 342.49 514.491 345.619 513.655 348.594C512.664 351.874 511.267 355.174 509.122 357.626C506.589 360.556 503.078 362.245 499.474 362.783C493.29 362.618 487.593 360.306 483.87 354.823Z" fill="#E35942"/>
<path d="M491.174 360.691C498.4 365.854 507.985 357.369 505.112 348.469C505.131 348.363 505.035 348.342 505.054 348.235C504.657 352.653 503.13 355.604 500.991 356.987C502.403 354.67 502.267 351.561 501.577 348.765C500.869 346.074 499.643 343.486 498.82 340.88C498.015 338.169 497.554 335.204 498.622 332.589C495.986 333.969 493.848 336.451 492.627 339.361C491.407 342.272 491.181 345.739 491.909 348.873C490.685 347.385 489.976 345.246 490.242 343.217C488.353 344.875 486.921 347.299 486.54 349.962C485.799 354.08 488.096 358.451 491.174 360.691Z" fill="#FFD15C"/>
<path d="M362.804 469.799C273.265 469.853 146.422 485.873 89.5786 493.729C73.2419 495.986 61.8849 512.869 64.1762 531.19C66.3841 548.843 80.5291 561.471 96.3715 560.616C119.169 559.386 151.276 558.762 175.227 562.727C242.679 573.896 268.781 635.755 336.957 636.635C380.748 637.201 402.458 608.286 446.254 608.414C474.301 608.496 506 620.295 534.826 635.143C579.703 658.259 637.409 634.193 648.588 580.15C657.711 536.042 631.127 492.774 591.086 487.736C526.909 479.659 433.695 469.756 362.804 469.799Z" fill="#5A2E25"/>
<path d="M102.116 497.19C104.555 500.273 94.4505 507.059 84.3918 517.111C74.3332 527.162 72.061 537.624 69.6219 534.541C67.1829 531.459 63.2558 518.032 73.3143 507.98C83.3731 497.929 99.6767 494.107 102.116 497.19Z" fill="#84473A"/>
<path d="M267.071 485.377C307.402 483.186 340.017 479.553 339.919 477.264C339.82 474.974 307.046 474.895 266.715 477.086C226.384 479.278 193.769 482.91 193.867 485.199C193.966 487.489 226.74 487.568 267.071 485.377Z" fill="#84473A"/>
<path d="M370.928 479.759C383.163 479.759 393.082 478.644 393.082 477.269C393.082 475.894 383.163 474.779 370.928 474.779C358.692 474.779 348.773 475.894 348.773 477.269C348.773 478.644 358.692 479.759 370.928 479.759Z" fill="#84473A"/>
<path d="M587.306 483.079L537.089 478.929C537.089 478.929 545.212 527.798 545.212 559.442C545.212 591.086 537.089 639.955 537.089 639.955L546.689 645.766L574.013 648.256L593.214 644.936L616.846 634.145L634.57 617.545L647.863 596.794L653.771 576.873L652.294 542.012L644.17 522.091L628.662 503.83L613.892 490.55L587.306 483.079Z" fill="#3E211B"/>
<path d="M644.17 564.105C642.432 590.519 631.852 613.906 625.708 613.394C619.564 612.883 620.279 590.519 622.015 564.105C623.752 537.692 625.472 522.41 631.616 522.921C637.76 523.432 645.907 537.692 644.17 564.105Z" fill="#2B1612"/>
<path fill-rule="evenodd" clip-rule="evenodd" d="M88.8576 487.138C145.679 479.284 272.856 463.213 362.801 463.158C434.05 463.115 527.547 473.059 591.743 481.137C635.381 486.627 664.249 533.766 654.342 581.654C642.134 640.676 579.861 665.645 532.364 641.181C503.792 626.462 473.017 615.132 446.238 615.054C425.579 614.995 410.148 621.725 393.747 628.878L393.741 628.879C377.366 636.021 360.039 643.574 336.889 643.276C301.007 642.812 276.216 626.177 252.625 609.125C251.196 608.092 249.772 607.058 248.35 606.025C226.201 589.946 204.666 574.315 174.366 569.296C151.029 565.432 119.42 566.019 96.6548 567.248C77.8948 568.26 60.977 553.31 58.3258 532.114C55.5814 510.173 69.1941 489.856 88.8576 487.138ZM89.5786 493.729C146.422 485.873 273.265 469.853 362.804 469.799C433.695 469.756 526.909 479.659 591.086 487.736C631.127 492.774 657.711 536.042 648.588 580.15C637.409 634.193 579.703 658.259 534.826 635.143C506 620.295 474.301 608.496 446.254 608.414C424.479 608.351 408.164 615.466 391.88 622.568C375.412 629.751 358.976 636.919 336.957 636.635C300.728 636.167 276.381 618.481 251.397 600.331C229.364 584.327 206.836 567.962 175.227 562.728C151.276 558.762 119.169 559.386 96.3715 560.616C80.5291 561.471 66.3841 548.843 64.1761 531.19C61.8849 512.869 73.2419 495.986 89.5786 493.729Z" fill="black"/>
<path d="M96.2077 535.371C96.2077 537.664 94.5545 539.521 92.5152 539.521C90.4759 539.521 88.8228 537.664 88.8228 535.371C88.8228 533.079 90.4759 531.221 92.5152 531.221C94.5545 531.221 96.2077 533.079 96.2077 535.371Z" fill="#F6F8F9"/>
<path fill-rule="evenodd" clip-rule="evenodd" d="M100.639 535.371C100.639 540.415 97.0018 544.502 92.5153 544.502C88.0289 544.502 84.3918 540.415 84.3918 535.371C84.3918 530.328 88.0289 526.241 92.5153 526.241C97.0018 526.241 100.639 530.328 100.639 535.371ZM92.5153 539.521C94.5546 539.521 96.2078 537.664 96.2078 535.371C96.2078 533.079 94.5546 531.221 92.5153 531.221C90.476 531.221 88.8228 533.079 88.8228 535.371C88.8228 537.664 90.476 539.521 92.5153 539.521Z" fill="black"/>
<path d="M282.308 551.972C282.308 554.264 280.656 556.122 278.616 556.122C276.576 556.122 274.923 554.264 274.923 551.972C274.923 549.679 276.576 547.822 278.616 547.822C280.656 547.822 282.308 549.679 282.308 551.972Z" fill="#F6F8F9"/>
<path fill-rule="evenodd" clip-rule="evenodd" d="M286.739 551.972C286.739 557.015 283.102 561.102 278.616 561.102C274.129 561.102 270.493 557.015 270.493 551.972C270.493 546.929 274.129 542.842 278.616 542.842C283.102 542.842 286.739 546.929 286.739 551.972ZM278.616 556.122C280.656 556.122 282.308 554.264 282.308 551.972C282.308 549.679 280.656 547.822 278.616 547.822C276.576 547.822 274.924 549.679 274.924 551.972C274.924 554.264 276.576 556.122 278.616 556.122Z" fill="black"/>
<path d="M508.288 527.071C508.288 529.364 506.635 531.221 504.595 531.221C502.555 531.221 500.903 529.364 500.903 527.071C500.903 524.778 502.555 522.921 504.595 522.921C506.635 522.921 508.288 524.778 508.288 527.071Z" fill="#F6F8F9"/>
<path fill-rule="evenodd" clip-rule="evenodd" d="M512.718 527.071C512.718 532.114 509.081 536.201 504.595 536.201C500.108 536.201 496.472 532.114 496.472 527.071C496.472 522.028 500.108 517.941 504.595 517.941C509.081 517.941 512.718 522.028 512.718 527.071ZM504.595 531.221C506.635 531.221 508.287 529.363 508.287 527.071C508.287 524.778 506.635 522.921 504.595 522.921C502.555 522.921 500.903 524.778 500.903 527.071C500.903 529.363 502.555 531.221 504.595 531.221Z" fill="black"/>
<path d="M8.6022 857.57C0.883605 810.023 30.7532 765.242 73.5927 761.039C149.969 753.547 266.381 743.751 353.204 743.71C437.06 743.67 547.267 752.677 623.324 760.045C669.465 764.513 699.721 815.59 686.343 865.422L651.771 994.195C649.889 1001.2 644.144 1006 637.63 1006H45.0162C37.8816 1006 31.7667 1000.27 30.4862 992.379L8.6022 857.57Z" fill="#8C4D2E"/>
<path d="M645.647 998.53L689.219 848.294L576.967 831.693C576.967 831.693 578.309 887.295 576.967 921.337C575.641 954.998 570.321 1004.34 570.321 1004.34L645.647 998.53Z" fill="#64361F" fill-opacity="0.8"/>
<path d="M633.131 997.7C633.865 994.197 634.567 990.621 635.233 986.987C644.501 936.339 643.052 893.209 631.996 890.652C620.94 888.096 604.465 927.084 595.195 977.732C593.948 984.55 592.894 991.234 592.033 997.7H633.131Z" fill="#57311E" fill-opacity="0.5"/>
<path d="M481.702 912.1C481.702 918.976 427.951 980.163 371.666 980.163C315.381 980.163 297.078 967.948 297.078 961.072C297.078 954.196 320.551 955.262 376.836 955.262C432.223 949.452 481.702 905.224 481.702 912.1Z" fill="#713A21" fill-opacity="0.6"/>
<path fill-rule="evenodd" clip-rule="evenodd" d="M646.114 992.276L680.686 863.505C693.001 817.634 665.151 770.76 622.818 766.66C546.776 759.294 436.788 750.31 353.207 750.35C266.663 750.39 150.474 760.164 74.1064 767.654C34.7956 771.511 7.30925 812.611 14.4142 856.378L36.2981 991.187C37.0666 995.92 40.7355 999.36 45.0162 999.36H637.63C641.538 999.36 644.986 996.483 646.114 992.276ZM73.5927 761.039C30.7532 765.242 0.883605 810.023 8.6022 857.57L30.4862 992.379C31.7667 1000.27 37.8815 1006 45.0162 1006H637.63C644.144 1006 649.889 1001.2 651.771 994.195L686.343 865.422C699.721 815.59 669.465 764.513 623.324 760.045C547.267 752.677 437.06 743.67 353.204 743.71C266.381 743.751 149.969 753.547 73.5927 761.039Z" fill="black"/>
<path d="M69.4649 728.143C72.345 739.515 86.3542 751.726 86.3542 751.726L160.011 743.525C160.011 743.525 175.561 721.755 174.14 705.878C172.104 683.132 146.183 685.868 134.79 667.527C128.977 675.625 133.758 684.133 129.928 693.605C118.97 720.708 62.2124 699.51 69.4649 728.143Z" fill="#F40236"/>
<path d="M129.978 704.369C130.275 705.161 124.227 708.773 116.47 712.436C108.713 716.099 102.437 715.82 102.14 715.029C101.844 714.235 107.64 713.229 115.397 709.565C123.154 705.903 129.682 703.576 129.978 704.369Z" fill="black"/>
<path d="M90.6017 713.813C92.1836 715.02 85.9217 721.02 81.8392 727.776C77.7568 734.533 79.1065 739.49 77.5246 738.281C75.9427 737.074 69.9135 728.273 73.9961 721.516C78.0785 714.76 89.0198 712.605 90.6017 713.813Z" fill="#F05D7C"/>
<path d="M161.482 746.799L127.881 749.663C127.881 749.663 143.966 730.17 143.832 715.324C143.619 691.861 134.625 665.167 134.625 665.167C134.625 665.167 141.737 672.245 148.242 677.48C154.748 682.714 168.192 688.868 168.192 688.868C168.192 688.868 176.258 702.483 176.742 712.392C177.475 727.383 161.482 746.799 161.482 746.799Z" fill="#990022"/>
<path d="M138.067 738.53C128.971 752.354 120.313 750.923 119.083 749.9C117.853 748.877 126.522 748.2 135.618 734.377C144.714 720.552 142.345 708.807 143.575 709.829C144.805 710.852 147.164 724.707 138.067 738.53Z" fill="black"/>
<path fill-rule="evenodd" clip-rule="evenodd" d="M82.7334 756.973L86.3541 751.726L160.011 743.525L164.618 747.682L163.064 749.858L84.5937 758.595L82.7334 756.973ZM138.791 672.637C143.354 677.342 149.032 680.327 154.499 683.202C164.064 688.228 172.979 692.916 174.14 705.878C175.561 721.755 160.011 743.525 160.011 743.525C164.618 747.682 164.618 747.68 164.619 747.679L164.64 747.649L164.686 747.586C164.723 747.533 164.774 747.458 164.839 747.365C164.971 747.177 165.154 746.91 165.384 746.57C165.842 745.889 166.485 744.915 167.247 743.701C168.765 741.281 170.781 737.868 172.759 733.905C176.521 726.373 180.927 715.371 180.018 705.214C178.659 690.036 168.873 683.617 160.554 679.077C159.272 678.378 158.023 677.715 156.809 677.071C149.533 673.212 143.559 670.044 139.634 663.726L135.131 656.476L130.192 663.357C125.944 669.275 125.718 675.433 125.707 680.033C125.706 680.469 125.707 680.891 125.707 681.296C125.707 685.381 125.708 687.991 124.549 690.858C122.83 695.109 119.163 698.021 113.143 700.048C107.397 701.982 100.621 702.749 93.5336 703.551C93.1142 703.599 92.6937 703.647 92.2723 703.694C85.294 704.489 77.3376 705.418 71.7125 708.516C68.6962 710.176 65.759 712.759 64.1366 716.843C62.5166 720.922 62.6333 725.424 63.7827 729.961C65.6533 737.346 70.8032 744.251 74.7493 748.823C76.828 751.231 78.8001 753.245 80.252 754.659C80.9804 755.368 81.5844 755.933 82.0136 756.326C82.2283 756.524 82.3998 756.678 82.5218 756.786C82.5828 756.841 82.6314 756.884 82.667 756.915L82.7103 756.954L82.7244 756.965L82.7296 756.97L82.7317 756.972C82.7326 756.972 82.7334 756.973 86.3541 751.726C86.3541 751.726 72.3451 739.515 69.4648 728.143C65.7211 713.364 79.0343 711.861 94.2996 710.138C108.606 708.524 124.626 706.718 129.928 693.605C131.645 689.357 131.631 685.302 131.617 681.392C131.609 678.974 131.601 676.611 132.002 674.291C132.399 671.998 133.197 669.747 134.79 667.527C135.98 669.443 137.328 671.128 138.791 672.637Z" fill="black"/>
<path d="M291.256 699.027C296.405 678.017 324.113 690.619 332.653 668.225C346.525 681.449 345.295 684.271 355.382 691.673C371.657 703.614 396.189 688.255 402.754 708.815C406.57 720.766 398.89 741.037 398.89 741.037L301.785 741.211C301.785 741.211 287.213 715.523 291.256 699.027Z" fill="#F40236"/>
<path d="M398.575 742.616L368.647 740.695C368.647 740.695 375.178 728.085 374.464 719.26C373.558 708.093 360.069 696.041 360.069 696.041L396.341 699.884L404.635 712.59L398.575 742.616Z" fill="#990022"/>
<path d="M332.895 718.707C342.051 727.834 343.332 733.273 347.636 737.564C347.636 737.564 338.375 732.494 329.219 723.365C320.063 714.238 322.214 698.333 323.228 697.048C324.243 695.762 323.739 709.58 332.895 718.707Z" fill="black"/>
<path d="M390.021 724.938C390.586 735.751 384.929 741.178 383.593 741.266C382.258 741.356 385.749 736.07 385.184 725.256C384.618 714.443 374.102 709.149 375.438 709.061C376.774 708.973 389.455 714.124 390.021 724.938Z" fill="black"/>
<path fill-rule="evenodd" clip-rule="evenodd" d="M331.514 662.786L334.564 665.693C341.166 671.988 344.447 676.009 347.055 679.204C347.243 679.435 347.429 679.663 347.61 679.885C350.195 683.042 352.225 685.391 356.998 688.893C360.528 691.484 364.6 692.666 369.039 693.197C372.288 693.586 375.527 693.612 378.834 693.639C380.135 693.649 381.447 693.66 382.775 693.693C387.287 693.805 391.975 694.178 396.013 696.081C400.247 698.074 403.61 701.67 405.535 707.694C407.764 714.672 406.578 723.581 405.121 730.203C404.37 733.618 403.497 736.634 402.813 738.794C402.47 739.878 402.173 740.751 401.961 741.359C401.854 741.664 401.767 741.902 401.708 742.068C401.677 742.149 401.653 742.214 401.637 742.259L401.616 742.313L401.611 742.328L401.609 742.333L401.608 742.335C401.608 742.337 401.608 742.337 398.89 741.037L401.608 742.335L400.844 744.352L300.168 744.535L299.295 742.997L301.785 741.211C299.295 742.997 299.295 742.996 299.294 742.996L299.289 742.987L299.279 742.969L299.242 742.904C299.211 742.848 299.167 742.768 299.111 742.665C298.997 742.46 298.834 742.161 298.632 741.779C298.224 741.014 297.653 739.911 296.982 738.538C295.644 735.799 293.898 731.961 292.277 727.58C290.661 723.208 289.141 718.223 288.293 713.196C287.45 708.197 287.233 702.94 288.408 698.146C289.936 691.914 293.217 688.082 297.279 685.587C301.048 683.27 305.541 682.088 309.659 681.006C309.776 680.974 309.893 680.944 310.009 680.913C318.836 678.588 326.327 676.384 329.938 666.917L331.514 662.786ZM303.449 737.889L396.874 737.72C396.989 737.375 397.115 736.99 397.248 736.57C397.884 734.556 398.694 731.757 399.386 728.61C400.816 722.11 401.562 714.909 399.974 709.937C398.615 705.681 396.45 703.486 393.729 702.205C390.812 700.83 387.12 700.443 382.645 700.332C381.503 700.304 380.304 700.294 379.067 700.284C375.663 700.256 371.976 700.226 368.415 699.799C363.472 699.208 358.375 697.834 353.768 694.454C348.452 690.553 346.052 687.789 343.262 684.38C343.078 684.155 342.891 683.927 342.702 683.695C340.559 681.069 338.035 677.974 333.527 673.472C328.161 682.954 319.057 685.352 311.587 687.317C311.51 687.337 311.433 687.359 311.356 687.379C306.93 688.544 303.146 689.55 300.112 691.414C297.264 693.164 295.152 695.636 294.104 699.909C293.259 703.36 293.346 707.502 294.098 711.959C294.845 716.388 296.211 720.917 297.733 725.03C299.249 729.134 300.893 732.75 302.161 735.341C302.661 736.365 303.101 737.225 303.449 737.889Z" fill="black"/>
<path d="M629.102 753.946C629.102 753.946 650.13 730.728 649.16 712.25C648.068 691.496 636.88 676.319 618.94 671.258C618.354 683.001 615.688 690.302 608.761 699.12C598.403 712.306 581.245 700.737 570.925 713.958C562.295 725.014 561.158 749.981 561.158 749.981L629.102 753.946Z" fill="#F40236"/>
<path d="M627.717 753.975L612.431 751.197C612.431 751.197 630.974 732.637 633.303 716.488C635.942 698.176 619.367 671.643 619.367 671.643L632.656 679.136L643.284 692.917L648.439 710.709L648.641 722.381L641.295 738.11L627.717 753.975Z" fill="#990022"/>
<path d="M643.24 713.158C643.38 721.324 638.451 730.388 637.304 730.412C636.158 730.437 638.521 720.651 638.379 712.485C638.239 704.32 636.245 695.405 637.391 695.38C638.539 695.355 643.098 704.992 643.24 713.158Z" fill="black"/>
<path d="M603.08 723.492C603.925 724.363 597.596 722.227 588.024 733.94C578.452 745.652 573.799 752.153 572.954 751.279C572.11 750.408 576.294 741.028 585.866 729.317C595.439 717.603 602.236 722.618 603.08 723.492Z" fill="black"/>
<path fill-rule="evenodd" clip-rule="evenodd" d="M616.19 667.058L619.66 668.037C638.85 673.452 650.941 689.854 652.108 712.054C652.388 717.384 651.081 722.843 649.146 727.876C647.203 732.936 644.543 737.78 641.902 741.952C639.255 746.133 636.583 749.711 634.577 752.239C633.572 753.506 632.73 754.515 632.134 755.211C631.838 755.559 631.601 755.83 631.437 756.016C631.355 756.11 631.291 756.182 631.247 756.231L631.194 756.29L631.179 756.306L631.174 756.311L631.173 756.313C631.173 756.313 631.171 756.314 629.102 753.946L631.171 756.314L630.245 757.337L558.058 753.124L558.208 749.81L561.158 749.981C558.208 749.81 558.208 749.812 558.208 749.81V749.802L558.21 749.784L558.213 749.719C558.216 749.666 558.22 749.588 558.225 749.488C558.236 749.289 558.254 749 558.279 748.633C558.329 747.898 558.409 746.845 558.535 745.551C558.783 742.964 559.207 739.395 559.91 735.461C561.285 727.771 563.839 718.002 568.704 711.768C574.693 704.095 582.697 703.622 589.33 703.231C589.445 703.224 589.559 703.217 589.673 703.211C596.727 702.791 602.301 702.327 606.547 696.922C609.863 692.699 612.05 688.981 613.496 685.025C614.941 681.069 615.71 676.696 615.991 671.072L616.19 667.058ZM564.354 746.842L627.924 750.552C628.473 749.908 629.245 748.982 630.169 747.82C632.074 745.418 634.6 742.035 637.088 738.102C639.583 734.161 641.998 729.735 643.723 725.245C645.458 720.728 646.415 716.353 646.21 712.446C645.265 694.47 636.285 681.137 621.581 675.582C621.134 679.951 620.314 683.843 618.961 687.546C617.195 692.382 614.585 696.721 610.975 701.318C604.976 708.956 596.979 709.428 590.355 709.819C590.231 709.826 590.108 709.834 589.986 709.841C582.935 710.261 577.372 710.732 573.145 716.148C569.382 720.97 567.052 729.211 565.701 736.769C565.042 740.459 564.642 743.822 564.407 746.263C564.388 746.462 564.37 746.656 564.354 746.842Z" fill="black"/>
<path d="M45.6072 663.317C45.0503 658.776 47.8743 654.587 51.9148 653.961L60.6937 652.602C64.7341 651.976 68.4609 655.15 69.0177 659.69L80.9145 756.718L57.504 760.343L45.6072 663.317Z" fill="#1DB5D3"/>
<path fill-rule="evenodd" clip-rule="evenodd" d="M61.2987 657.535L52.5197 658.895C50.9035 659.146 49.7739 660.821 49.9966 662.637L61.2886 754.731L75.9201 752.465L64.6282 660.371C64.4055 658.555 62.9148 657.285 61.2987 657.535ZM51.9148 653.961C47.8743 654.587 45.0503 658.776 45.6072 663.317L57.504 760.343L80.9145 756.718L69.0177 659.69C68.4609 655.15 64.7341 651.976 60.6937 652.602L51.9148 653.961Z" fill="black"/>
<path d="M60.4768 713.623C61.6897 713.442 61.6036 704.259 60.2845 693.113C58.9655 681.966 56.9129 673.077 55.7 673.259C54.4872 673.44 54.5732 682.623 55.8923 693.769C57.2113 704.916 59.2639 713.805 60.4768 713.623Z" fill="#E2F2F2"/>
<path d="M71.2412 751.141C72.6905 750.925 72.3832 738.225 70.555 722.776C68.7267 707.326 66.0698 694.978 64.6205 695.195C63.1713 695.411 63.4786 708.111 65.3068 723.56C67.135 739.009 69.792 751.358 71.2412 751.141Z" fill="#0E5260"/>
<path fill-rule="evenodd" clip-rule="evenodd" d="M77.4605 751.087L58.0006 745.481L58.7342 742.264L78.1941 747.871L77.4605 751.087Z" fill="black"/>
<path fill-rule="evenodd" clip-rule="evenodd" d="M75.7089 734.586L56.249 728.978L56.9826 725.763L76.4425 731.369L75.7089 734.586Z" fill="black"/>
<path fill-rule="evenodd" clip-rule="evenodd" d="M72.3323 718.214L52.8724 712.608L53.6061 709.391L73.066 714.999L72.3323 718.214Z" fill="black"/>
<path fill-rule="evenodd" clip-rule="evenodd" d="M70.4265 701.725L50.9666 696.119L51.7002 692.902L71.1601 698.509L70.4265 701.725Z" fill="black"/>
<path fill-rule="evenodd" clip-rule="evenodd" d="M68.521 685.235L49.0609 679.629L49.7944 676.412L69.2544 682.018L68.521 685.235Z" fill="black"/>
<path fill-rule="evenodd" clip-rule="evenodd" d="M67.5304 668.671L48.0703 663.065L48.8038 659.85L68.2638 665.456L67.5304 668.671Z" fill="black"/>
<path d="M57.8671 645.66L52.9587 646.128L53.7068 656.052L58.6152 655.585L57.8671 645.66Z" fill="black"/>
<path d="M43.8755 643.462C41.4479 640.794 39.0133 638.01 37.3583 634.592C35.689 630.945 35.0037 626.647 35.4556 622.485C35.9077 618.323 37.2927 614.316 39.4286 610.82C39.4067 613.687 40.5149 616.575 42.3883 618.602C41.0178 613.212 42.2716 607.153 45.2603 602.556C48.2492 597.961 52.5574 594.749 57.1281 592.431C54.9557 595.356 54.9266 599.712 56.0784 603.286C57.2301 606.86 59.3734 609.897 61.3198 613.062C63.2661 616.228 65.1177 619.515 65.4603 623.268C66.255 621.256 67.1516 619.236 67.6255 617.022C68.0993 614.805 68.2597 612.501 67.6108 610.376C69.6083 612.735 70.7893 615.161 71.5036 618.312C72.218 621.462 72.3275 624.777 72.2254 627.993C72.0431 631.561 71.46 635.274 69.9146 638.378C68.0996 642.077 64.9941 644.849 61.5096 646.506C55.262 648.271 48.971 647.748 43.8755 643.462Z" fill="black"/>
<path d="M43.6955 645.291C41.3633 642.701 39.0241 640.002 37.4332 636.685C35.8283 633.148 35.1678 628.979 35.5992 624.943C36.0305 620.91 37.3577 617.023 39.4062 613.637C39.387 616.416 40.4525 619.218 42.2523 621.185C40.9332 615.958 42.1333 610.083 44.9998 605.629C47.8663 601.175 52.0006 598.062 56.3871 595.819C54.3033 598.655 54.2781 602.88 55.3861 606.346C56.494 609.81 58.5535 612.755 60.4241 615.828C62.2946 618.899 64.0744 622.088 64.4056 625.729C65.1672 623.778 66.0268 621.819 66.4804 619.671C66.9338 617.523 67.0864 615.289 66.4622 613.228C68.3813 615.518 69.5166 617.87 70.2044 620.926C70.8921 623.982 70.9992 627.196 70.9034 630.314C70.7306 633.773 70.173 637.374 68.6913 640.382C66.9509 643.968 63.9713 646.652 60.6269 648.256C54.6302 649.964 48.5901 649.451 43.6955 645.291Z" fill="#E35942"/>
<path d="M52.1314 648.744C60.325 651.539 67.5348 640.477 62.6435 632.769C62.6365 632.661 62.5393 632.669 62.5324 632.562C63.2032 636.937 62.437 640.241 60.7062 642.216C61.5137 639.559 60.6405 636.604 59.3087 634.119C57.9837 631.74 56.1864 629.617 54.771 627.354C53.3486 624.983 52.1976 622.267 52.6023 619.425C50.3923 621.549 48.9249 624.585 48.4436 627.757C47.9621 630.93 48.571 634.338 50.0208 637.138C48.4867 636.073 47.2933 634.225 47.0654 632.19C45.6401 634.358 44.8397 637.123 45.1087 639.803C45.3769 643.996 48.6319 647.514 52.1314 648.744Z" fill="#FFD15C"/>
<path d="M198.602 649.139C198.336 644.564 201.42 640.615 205.489 640.316L214.333 639.667C218.402 639.368 221.917 642.834 222.183 647.408L227.861 745.144L204.279 746.874L198.602 649.139Z" fill="#1DB5D3"/>
<path fill-rule="evenodd" clip-rule="evenodd" d="M214.621 644.635L205.778 645.284C204.149 645.404 202.916 646.984 203.022 648.814L208.412 741.58L223.149 740.499L217.761 647.733C217.655 645.903 216.249 644.516 214.621 644.635ZM205.489 640.316C201.42 640.615 198.336 644.564 198.602 649.139L204.279 746.874L227.861 745.144L222.183 647.408C221.917 642.834 218.402 639.368 214.333 639.667L205.489 640.316Z" fill="black"/>
<path d="M210.224 700.513C211.446 700.43 211.946 691.264 211.341 680.04C210.736 668.816 209.256 659.785 208.035 659.868C206.813 659.951 206.313 669.117 206.918 680.341C207.523 691.565 209.003 700.596 210.224 700.513Z" fill="#E2F2F2"/>
<path d="M218.567 738.802C220.026 738.703 220.53 726.011 219.692 710.455C218.853 694.898 216.991 682.367 215.532 682.466C214.072 682.566 213.569 695.257 214.407 710.814C215.245 726.371 217.107 738.902 218.567 738.802Z" fill="#0E5260"/>
<path fill-rule="evenodd" clip-rule="evenodd" d="M224.774 739.251L205.722 732.089L206.659 728.94L225.71 736.101L224.774 739.251Z" fill="black"/>
<path fill-rule="evenodd" clip-rule="evenodd" d="M224.08 722.65L205.028 715.489L205.964 712.339L225.016 719.501L224.08 722.65Z" fill="black"/>
<path fill-rule="evenodd" clip-rule="evenodd" d="M221.756 706.049L202.703 698.888L203.641 695.739L222.693 702.9L221.756 706.049Z" fill="black"/>
<path fill-rule="evenodd" clip-rule="evenodd" d="M220.907 689.449L201.854 682.287L202.792 679.138L221.844 686.3L220.907 689.449Z" fill="black"/>
<path fill-rule="evenodd" clip-rule="evenodd" d="M220.058 672.846L201.006 665.687L201.943 662.537L220.994 669.697L220.058 672.846Z" fill="black"/>
<path fill-rule="evenodd" clip-rule="evenodd" d="M220.126 656.246L201.074 649.086L202.011 645.937L221.064 653.096L220.126 656.246Z" fill="black"/>
<path d="M211.956 632.514L207.031 632.585L207.144 642.544L212.069 642.474L211.956 632.514Z" fill="black"/>
<path d="M198.141 629.195C195.89 626.338 193.639 623.366 192.206 619.822C190.774 616.051 190.364 611.708 191.081 607.594C191.797 603.479 193.434 599.593 195.786 596.279C195.583 599.136 196.503 602.108 198.243 604.279C197.219 598.792 198.857 592.849 202.13 588.507C205.405 584.164 209.906 581.305 214.614 579.363C212.261 582.105 211.954 586.45 212.874 590.107C213.795 593.764 215.739 596.965 217.479 600.278C219.219 603.593 220.855 607.021 220.957 610.793C221.879 608.851 222.902 606.907 223.515 604.735C224.13 602.564 224.437 600.278 223.925 598.107C225.766 600.622 226.79 603.135 227.301 606.336C227.813 609.536 227.712 612.852 227.404 616.051C226.995 619.595 226.175 623.252 224.437 626.223C222.39 629.766 219.115 632.281 215.535 633.652C209.19 634.909 202.95 633.881 198.141 629.195Z" fill="black"/>
<path d="M197.844 631.004C195.683 628.234 193.522 625.352 192.147 621.917C190.772 618.26 190.379 614.048 191.066 610.058C191.754 606.068 193.326 602.3 195.586 599.086C195.389 601.857 196.272 604.739 197.943 606.844C196.961 601.525 198.532 595.761 201.675 591.55C204.818 587.338 209.14 584.567 213.658 582.683C211.4 585.343 211.104 589.554 211.989 593.102C212.872 596.648 214.739 599.75 216.41 602.964C218.079 606.18 219.65 609.503 219.749 613.162C220.632 611.278 221.615 609.394 222.204 607.287C222.793 605.182 223.089 602.964 222.597 600.859C224.366 603.298 225.348 605.735 225.839 608.839C226.331 611.942 226.232 615.156 225.938 618.26C225.545 621.695 224.759 625.242 223.089 628.123C221.124 631.559 217.981 633.997 214.543 635.327C208.453 636.546 202.461 635.548 197.844 631.004Z" fill="#E35942"/>
<path d="M206.038 635.128C214.032 638.578 221.929 628.124 217.542 620.041C217.542 619.933 217.445 619.933 217.445 619.825C217.835 624.245 216.86 627.477 215.007 629.309C215.983 626.723 215.299 623.705 214.129 621.119C212.959 618.64 211.302 616.377 210.035 614.007C208.768 611.528 207.793 608.726 208.378 605.924C206.038 607.865 204.381 610.773 203.699 613.899C203.016 617.023 203.406 620.473 204.674 623.383C203.211 622.196 202.139 620.257 202.042 618.21C200.48 620.257 199.506 622.951 199.603 625.646C199.603 629.849 202.626 633.621 206.038 635.128Z" fill="#FFD15C"/>
<path d="M336.403 641.298C336.437 636.715 339.769 633.028 343.849 633.066L352.71 633.148C356.788 633.184 360.067 636.931 360.035 641.514L359.324 739.455L335.694 739.239L336.403 641.298Z" fill="#1DB5D3"/>
<path fill-rule="evenodd" clip-rule="evenodd" d="M352.674 638.128L343.812 638.046C342.181 638.031 340.847 639.506 340.834 641.338L340.161 734.3L354.93 734.435L355.604 641.474C355.617 639.64 354.306 638.143 352.674 638.128ZM343.849 633.066C339.769 633.028 336.437 636.715 336.403 641.298L335.694 739.239L359.324 739.455L360.035 641.514C360.067 636.931 356.788 633.184 352.71 633.148L343.849 633.066Z" fill="black"/>
<path d="M344.645 693.492C345.869 693.51 346.965 684.409 347.093 673.165C347.222 661.922 346.335 652.793 345.111 652.775C343.888 652.757 342.791 661.858 342.663 673.101C342.534 684.345 343.422 693.474 344.645 693.492Z" fill="#E2F2F2"/>
<path d="M350.47 732.366C351.932 732.387 353.262 719.771 353.44 704.187C353.619 688.603 352.578 675.952 351.116 675.931C349.654 675.91 348.325 688.526 348.146 704.11C347.968 719.694 349.009 732.345 350.47 732.366Z" fill="#0E5260"/>
<path fill-rule="evenodd" clip-rule="evenodd" d="M356.632 733.323L338.097 724.612L339.237 721.549L357.771 730.26L356.632 733.323Z" fill="black"/>
<path fill-rule="evenodd" clip-rule="evenodd" d="M357.02 716.71L338.487 708L339.626 704.935L358.161 713.647L357.02 716.71Z" fill="black"/>
<path fill-rule="evenodd" clip-rule="evenodd" d="M355.786 699.962L337.252 691.251L338.391 688.189L356.926 696.899L355.786 699.962Z" fill="black"/>
<path fill-rule="evenodd" clip-rule="evenodd" d="M356.022 683.336L337.487 674.626L338.626 671.563L357.161 680.273L356.022 683.336Z" fill="black"/>
<path fill-rule="evenodd" clip-rule="evenodd" d="M356.257 666.711L337.722 658L338.862 654.938L357.397 663.646L356.257 666.711Z" fill="black"/>
<path fill-rule="evenodd" clip-rule="evenodd" d="M357.407 650.16L338.873 641.449L340.013 638.387L358.548 647.097L357.407 650.16Z" fill="black"/>
<path d="M350.805 625.82L345.888 625.485L345.352 635.427L350.269 635.762L350.805 625.82Z" fill="black"/>
<path d="M337.243 621.371C335.186 618.335 333.134 615.186 331.937 611.535C330.754 607.656 330.628 603.29 331.612 599.246C332.594 595.202 334.48 591.46 337.043 588.349C336.653 591.181 337.378 594.221 338.97 596.53C338.308 590.974 340.327 585.182 343.877 581.119C347.424 577.059 352.102 574.579 356.921 573.03C354.396 575.571 353.806 579.878 354.487 583.601C355.167 587.325 356.898 590.676 358.416 594.124C359.934 597.574 361.343 601.128 361.2 604.898C362.244 603.036 363.392 601.183 364.145 599.066C364.9 596.951 365.355 594.697 364.986 592.489C366.659 595.149 367.516 597.742 367.817 600.975C368.118 604.209 367.801 607.506 367.285 610.672C366.647 614.171 365.591 617.752 363.664 620.572C361.392 623.937 357.963 626.175 354.301 627.248C347.893 627.98 341.735 626.439 337.243 621.371Z" fill="black"/>
<path d="M336.831 623.151C334.857 620.211 332.889 617.158 331.742 613.619C330.609 609.857 330.491 605.625 331.438 601.703C332.383 597.78 334.195 594.151 336.659 591.131C336.282 593.879 336.976 596.825 338.503 599.063C337.871 593.678 339.814 588.058 343.224 584.117C346.633 580.177 351.124 577.769 355.753 576.262C353.326 578.729 352.758 582.904 353.409 586.515C354.059 590.124 355.718 593.372 357.174 596.716C358.629 600.059 359.98 603.504 359.84 607.159C360.844 605.353 361.946 603.555 362.671 601.503C363.397 599.452 363.835 597.265 363.482 595.125C365.088 597.702 365.907 600.215 366.195 603.351C366.483 606.485 366.175 609.683 365.679 612.754C365.064 616.148 364.048 619.62 362.196 622.357C360.013 625.621 356.718 627.794 353.202 628.836C347.049 629.552 341.138 628.063 336.831 623.151Z" fill="#E35942"/>
<path d="M344.733 627.938C352.482 632.037 361.039 622.261 357.19 613.839C357.198 613.731 357.1 613.723 357.108 613.617C357.208 618.056 356.025 621.198 354.058 622.873C355.199 620.375 354.715 617.309 353.716 614.633C352.712 612.065 351.207 609.671 350.098 607.202C348.994 604.626 348.206 601.752 348.971 599.005C346.512 600.748 344.668 603.512 343.784 606.573C342.9 609.634 343.064 613.106 344.138 616.112C342.757 614.809 341.815 612.785 341.85 610.735C340.161 612.649 339.013 615.255 338.935 617.951C338.661 622.143 341.429 626.154 344.733 627.938Z" fill="#FFD15C"/>
<path d="M481.411 645.015C481.959 640.472 485.678 637.288 489.72 637.902L498.502 639.238C502.544 639.854 505.376 644.034 504.83 648.578L493.142 745.637L469.723 742.074L481.411 645.015Z" fill="#1DB5D3"/>
<path fill-rule="evenodd" clip-rule="evenodd" d="M497.907 644.174L489.127 642.837C487.509 642.592 486.022 643.865 485.802 645.683L474.71 737.806L489.345 740.033L500.439 647.909C500.657 646.093 499.525 644.419 497.907 644.174ZM489.72 637.902C485.678 637.288 481.959 640.472 481.411 645.015L469.723 742.074L493.142 745.637L504.83 648.578C505.376 644.034 502.544 639.854 498.502 639.238L489.72 637.902Z" fill="black"/>
<path d="M483.735 697.96C484.947 698.15 487.055 689.278 488.443 678.142C489.832 667.007 489.975 657.825 488.764 657.634C487.552 657.443 485.444 666.315 484.055 677.451C482.667 688.587 482.524 697.769 483.735 697.96Z" fill="#E2F2F2"/>
<path d="M485.153 737.349C486.601 737.577 489.335 725.25 491.259 709.816C493.184 694.381 493.57 681.684 492.122 681.456C490.675 681.228 487.941 693.555 486.016 708.99C484.092 724.424 483.705 737.121 485.153 737.349Z" fill="#0E5260"/>
<path fill-rule="evenodd" clip-rule="evenodd" d="M491.157 739.171L473.748 727.904L475.222 725.027L492.631 736.294L491.157 739.171Z" fill="black"/>
<path fill-rule="evenodd" clip-rule="evenodd" d="M493.408 722.746L475.998 711.479L477.472 708.601L494.881 719.868L493.408 722.746Z" fill="black"/>
<path fill-rule="evenodd" clip-rule="evenodd" d="M494.06 705.956L476.65 694.689L478.124 691.813L495.534 703.079L494.06 705.956Z" fill="black"/>
<path fill-rule="evenodd" clip-rule="evenodd" d="M496.159 689.497L478.749 678.23L480.223 675.353L497.633 686.62L496.159 689.497Z" fill="black"/>
<path fill-rule="evenodd" clip-rule="evenodd" d="M498.257 673.036L480.847 661.77L482.321 658.892L499.731 670.159L498.257 673.036Z" fill="black"/>
<path fill-rule="evenodd" clip-rule="evenodd" d="M501.254 656.78L483.845 645.515L485.319 642.636L502.728 653.903L501.254 656.78Z" fill="black"/>
<path d="M497.435 631.7L492.594 630.671L490.947 640.458L495.787 641.487L497.435 631.7Z" fill="black"/>
<path d="M484.48 625.365C482.778 622.062 481.096 618.647 480.318 614.855C479.579 610.84 479.946 606.492 481.374 602.619C482.802 598.746 485.093 595.301 487.983 592.577C487.279 595.333 487.657 598.45 488.979 600.967C488.943 595.361 491.598 589.901 495.574 586.375C499.55 582.849 504.467 581.051 509.422 580.196C506.632 582.361 505.564 586.549 505.821 590.339C506.078 594.129 507.419 597.698 508.539 601.336C509.658 604.971 510.658 608.698 510.092 612.417C511.337 610.718 512.683 609.042 513.668 607.051C514.653 605.059 515.358 602.888 515.24 600.645C516.601 603.52 517.16 606.213 517.096 609.463C517.033 612.714 516.347 615.939 515.482 619.007C514.455 622.389 513.008 625.792 510.779 628.315C508.147 631.331 504.495 633.066 500.742 633.612C494.302 633.43 488.366 631.029 484.48 625.365Z" fill="black"/>
<path d="M483.87 627.073C482.241 623.874 480.632 620.569 479.891 616.895C479.188 613.004 479.547 608.788 480.925 605.031C482.303 601.274 484.508 597.931 487.291 595.285C486.608 597.956 486.967 600.977 488.231 603.414C488.208 597.981 490.766 592.683 494.59 589.255C498.414 585.829 503.139 584.078 507.901 583.238C505.217 585.341 504.184 589.403 504.425 593.077C504.664 596.749 505.946 600.207 507.016 603.73C508.085 607.252 509.039 610.861 508.49 614.468C509.689 612.818 510.984 611.192 511.933 609.259C512.882 607.327 513.562 605.219 513.453 603.046C514.755 605.829 515.288 608.439 515.222 611.59C515.156 614.741 514.491 617.87 513.655 620.845C512.664 624.125 511.267 627.425 509.122 629.877C506.59 632.807 503.078 634.496 499.474 635.033C493.29 634.869 487.593 632.557 483.87 627.073Z" fill="#E35942"/>
<path d="M491.174 632.942C498.401 638.104 507.985 629.62 505.112 620.72C505.131 620.614 505.035 620.592 505.054 620.486C504.657 624.904 503.13 627.855 500.991 629.238C502.403 626.921 502.267 623.811 501.578 621.016C500.869 618.325 499.643 615.737 498.82 613.13C498.015 610.42 497.554 607.455 498.622 604.84C495.986 606.22 493.849 608.701 492.629 611.611C491.407 614.523 491.181 617.989 491.909 621.124C490.685 619.636 489.977 617.496 490.243 615.468C488.353 617.126 486.921 619.55 486.542 622.213C485.799 626.331 488.096 630.702 491.174 632.942Z" fill="#FFD15C"/>
<path d="M643.995 659.634C644.928 655.172 648.903 652.403 652.873 653.452L661.5 655.729C665.472 656.777 667.934 661.244 667.002 665.706L647.076 761.056L624.07 754.983L643.995 659.634Z" fill="#1DB5D3"/>
<path fill-rule="evenodd" clip-rule="evenodd" d="M660.487 660.577L651.86 658.299C650.272 657.881 648.683 658.988 648.309 660.773L629.396 751.273L643.775 755.069L662.687 664.568C663.061 662.783 662.076 660.997 660.487 660.577ZM652.873 653.452C648.903 652.403 644.928 655.172 643.995 659.634L624.07 754.983L647.076 761.056L667.002 665.706C667.934 661.244 665.472 656.777 661.5 655.729L652.873 653.452Z" fill="black"/>
<path d="M641.784 712.586C642.974 712.906 645.83 704.302 648.164 693.368C650.497 682.433 651.424 673.309 650.234 672.989C649.045 672.668 646.188 681.272 643.855 692.206C641.521 703.141 640.594 712.265 641.784 712.586Z" fill="#E2F2F2"/>
<path d="M639.831 751.946C641.253 752.329 645.027 740.354 648.261 725.198C651.496 710.043 652.965 697.446 651.544 697.063C650.122 696.68 646.347 708.655 643.113 723.81C639.879 738.966 638.409 751.562 639.831 751.946Z" fill="#0E5260"/>
<path fill-rule="evenodd" clip-rule="evenodd" d="M645.652 754.407L629.285 741.312L630.999 738.608L647.365 751.703L645.652 754.407Z" fill="black"/>
<path fill-rule="evenodd" clip-rule="evenodd" d="M649.295 738.299L632.929 725.207L634.641 722.502L651.007 735.595L649.295 738.299Z" fill="black"/>
<path fill-rule="evenodd" clip-rule="evenodd" d="M651.379 721.659L635.013 708.566L636.726 705.86L653.091 718.955L651.379 721.659Z" fill="black"/>
<path fill-rule="evenodd" clip-rule="evenodd" d="M654.874 705.502L638.508 692.409L640.221 689.703L656.586 702.797L654.874 705.502Z" fill="black"/>
<path fill-rule="evenodd" clip-rule="evenodd" d="M658.369 689.344L642.002 676.251L643.715 673.545L660.082 686.638L658.369 689.344Z" fill="black"/>
<path fill-rule="evenodd" clip-rule="evenodd" d="M662.741 673.487L646.374 660.394L648.087 657.688L664.454 670.781L662.741 673.487Z" fill="black"/>
<path d="M661.082 648.109L656.353 646.562L653.877 656.126L658.607 657.673L661.082 648.109Z" fill="black"/>
<path d="M648.728 640.405C647.316 636.934 645.934 633.355 645.483 629.495C645.092 625.418 645.828 621.13 647.579 617.428C649.332 613.728 651.907 610.547 655.017 608.149C654.081 610.815 654.19 613.959 655.291 616.607C655.735 611.024 658.843 605.874 663.102 602.793C667.361 599.712 672.409 598.454 677.414 598.138C674.452 599.991 673.031 604.045 672.963 607.845C672.895 611.645 673.924 615.343 674.729 619.083C675.533 622.825 676.209 626.642 675.329 630.282C676.713 628.725 678.196 627.203 679.346 625.327C680.497 623.451 681.385 621.364 681.458 619.12C682.568 622.128 682.894 624.869 682.553 628.098C682.212 631.326 681.255 634.464 680.131 637.424C678.82 640.679 677.088 643.91 674.654 646.181C671.777 648.9 667.993 650.231 664.212 650.371C657.816 649.494 652.114 646.465 648.728 640.405Z" fill="black"/>
<path d="M647.975 642.041C646.628 638.681 645.308 635.218 644.884 631.479C644.517 627.53 645.234 623.373 646.926 619.782C648.621 616.192 651.1 613.102 654.096 610.768C653.189 613.355 653.286 616.399 654.338 618.961C654.778 613.55 657.776 608.554 661.877 605.556C665.975 602.556 670.829 601.322 675.639 601.002C672.788 602.805 671.413 606.738 671.34 610.42C671.264 614.102 672.245 617.681 673.009 621.303C673.772 624.925 674.413 628.621 673.558 632.152C674.892 630.639 676.321 629.158 677.431 627.337C678.541 625.516 679.398 623.493 679.475 621.316C680.532 624.228 680.84 626.882 680.504 630.012C680.169 633.141 679.241 636.184 678.154 639.056C676.887 642.213 675.215 645.347 672.871 647.557C670.1 650.2 666.461 651.501 662.828 651.647C656.686 650.817 651.213 647.899 647.975 642.041Z" fill="#E35942"/>
<path d="M654.744 648.671C661.495 654.589 671.762 647.178 669.662 638.008C669.69 637.905 669.597 637.874 669.625 637.771C668.851 642.125 667.08 644.897 664.833 646.043C666.436 643.888 666.566 640.779 666.118 637.922C665.643 635.168 664.644 632.459 664.046 629.776C663.478 626.99 663.272 623.991 664.559 621.502C661.817 622.589 659.476 624.831 658.013 627.596C656.55 630.362 656.028 633.788 656.485 636.987C655.394 635.374 654.871 633.167 655.31 631.175C653.286 632.623 651.656 634.881 651.049 637.49C649.959 641.511 651.871 646.109 654.744 648.671Z" fill="#FFD15C"/>
<path d="M8.6022 857.57L28.581 980.642C30.5089 992.519 42.7707 998.36 51.8737 991.954C86.5538 967.543 161.61 919.285 221.013 913.036C282.294 906.59 315.601 946.58 376.836 939.597C451.245 931.114 477.833 856.42 552.597 854.104C576.595 853.36 606.151 860.693 630.789 868.696C657.778 877.464 687.378 861.569 695.494 831.338C704.121 799.202 684.665 766.262 654.923 763.2C580.784 755.571 449.588 743.665 353.204 743.71C266.381 743.751 149.969 753.547 73.5927 761.039C30.7532 765.242 0.883605 810.023 8.6022 857.57Z" fill="#5A2E25"/>
<path d="M667.064 761.97L572.536 750.35C572.536 750.35 578.582 783.634 578.444 805.962C578.31 827.661 572.536 859.914 572.536 859.914L584.352 862.404C596.415 865.172 620.834 870.705 622.015 870.705C623.197 870.705 635.308 874.025 641.216 875.685L658.94 874.025L682.572 859.914L694.388 841.653L702.511 823.393L701.034 805.962L689.218 780.231L667.064 761.97Z" fill="#3E211B"/>
<path d="M686.005 804.87C687.891 820.773 681.884 834.796 672.585 836.19C663.287 837.583 658.611 825.162 656.723 809.259C654.836 793.355 651.23 779.937 660.528 778.543C669.827 777.148 684.117 788.966 686.005 804.87Z" fill="#2B1612"/>
<path fill-rule="evenodd" clip-rule="evenodd" d="M21.316 982.133L1.33722 859.061C-7.14843 806.787 25.7005 757.405 72.9506 752.77C149.338 745.278 266.029 735.451 353.201 735.409C449.96 735.364 581.457 747.305 655.596 754.935C690.063 758.482 712.521 796.649 702.563 833.737C693.15 868.797 659.172 886.558 628.739 876.671C604.249 868.714 575.606 861.694 552.801 862.401C517.842 863.485 494.12 881.309 468.836 901.325C467.97 902.01 467.102 902.699 466.23 903.39C441.879 922.7 415.627 943.517 377.58 947.855C345.318 951.533 320.385 942.761 296.765 934.449L296.736 934.44C273.054 926.106 250.701 918.251 221.702 921.3C193.253 924.293 160.544 937.453 130.277 953.215C100.133 968.914 72.9843 986.888 55.7934 998.988C42.4151 1008.41 24.2121 999.974 21.316 982.133ZM28.581 980.642L8.60222 857.57C0.883622 810.023 30.7532 765.242 73.5927 761.039C149.969 753.547 266.381 743.751 353.204 743.71C449.588 743.665 580.784 755.571 654.923 763.2C684.665 766.262 704.121 799.202 695.494 831.338C687.378 861.569 657.778 877.464 630.789 868.696C606.151 860.693 576.595 853.36 552.597 854.104C514.094 855.298 488.366 875.688 462.304 896.344C437.763 915.795 412.923 935.484 376.836 939.597C346.077 943.103 322.366 934.76 298.616 926.403C275.083 918.123 251.513 909.827 221.013 913.036C161.61 919.285 86.5538 967.543 51.8737 991.954C42.7708 998.36 30.5089 992.519 28.581 980.642Z" fill="black"/>
<path d="M36.059 985.639C38.5566 985.207 36.0048 951.385 30.3595 910.095C24.7142 868.805 18.1131 835.683 15.6155 836.114C13.1179 836.546 15.6697 870.367 21.315 911.658C26.9603 952.948 33.5614 986.07 36.059 985.639Z" fill="#84473A"/>
<path d="M274.456 757.628C314.787 755.436 347.402 751.804 347.304 749.515C347.205 747.225 314.431 747.146 274.1 749.337C233.769 751.528 201.154 755.161 201.253 757.45C201.351 759.739 234.125 759.819 274.456 757.628Z" fill="#84473A"/>
<path d="M378.313 752.01C390.548 752.01 400.467 750.895 400.467 749.52C400.467 748.145 390.548 747.03 378.313 747.03C366.077 747.03 356.158 748.145 356.158 749.52C356.158 750.895 366.077 752.01 378.313 752.01Z" fill="#84473A"/>
<path d="M59.2831 842.483C59.2831 844.776 57.6299 846.634 55.5907 846.634C53.5514 846.634 51.8982 844.776 51.8982 842.483C51.8982 840.191 53.5514 838.333 55.5907 838.333C57.6299 838.333 59.2831 840.191 59.2831 842.483Z" fill="#F6F8F9"/>
<path fill-rule="evenodd" clip-rule="evenodd" d="M63.7141 842.483C63.7141 847.527 60.0771 851.614 55.5907 851.614C51.1042 851.614 47.4673 847.527 47.4673 842.483C47.4673 837.44 51.1042 833.353 55.5907 833.353C60.0771 833.353 63.7141 837.44 63.7141 842.483ZM55.5907 846.634C57.63 846.634 59.2832 844.776 59.2832 842.483C59.2832 840.191 57.63 838.333 55.5907 838.333C53.5514 838.333 51.8982 840.191 51.8982 842.483C51.8982 844.776 53.5514 846.634 55.5907 846.634Z" fill="black"/>
<path d="M214.367 799.322C214.367 801.614 212.714 803.472 210.675 803.472C208.635 803.472 206.982 801.614 206.982 799.322C206.982 797.029 208.635 795.172 210.675 795.172C212.714 795.172 214.367 797.029 214.367 799.322Z" fill="#F6F8F9"/>
<path fill-rule="evenodd" clip-rule="evenodd" d="M218.798 799.322C218.798 804.365 215.16 808.452 210.675 808.452C206.187 808.452 202.551 804.365 202.551 799.322C202.551 794.279 206.187 790.191 210.675 790.191C215.16 790.191 218.798 794.279 218.798 799.322ZM210.675 803.472C212.714 803.472 214.367 801.614 214.367 799.322C214.367 797.029 212.714 795.172 210.675 795.172C208.635 795.172 206.982 797.029 206.982 799.322C206.982 801.614 208.635 803.472 210.675 803.472Z" fill="black"/>
<path d="M128.702 915.526C128.702 917.819 127.048 919.677 125.009 919.677C122.97 919.677 121.317 917.819 121.317 915.526C121.317 913.234 122.97 911.376 125.009 911.376C127.048 911.376 128.702 913.234 128.702 915.526Z" fill="#F6F8F9"/>
<path fill-rule="evenodd" clip-rule="evenodd" d="M133.133 915.526C133.133 920.57 129.496 924.657 125.009 924.657C120.523 924.657 116.886 920.57 116.886 915.526C116.886 910.483 120.523 906.396 125.009 906.396C129.496 906.396 133.133 910.483 133.133 915.526ZM125.009 919.677C127.048 919.677 128.702 917.819 128.702 915.526C128.702 913.234 127.048 911.376 125.009 911.376C122.97 911.376 121.317 913.234 121.317 915.526C121.317 917.819 122.97 919.677 125.009 919.677Z" fill="black"/>
<path d="M322.187 847.464C322.187 849.756 320.534 851.614 318.495 851.614C316.455 851.614 314.802 849.756 314.802 847.464C314.802 845.171 316.455 843.314 318.495 843.314C320.534 843.314 322.187 845.171 322.187 847.464Z" fill="#F6F8F9"/>
<path fill-rule="evenodd" clip-rule="evenodd" d="M326.618 847.464C326.618 852.507 322.98 856.594 318.495 856.594C314.008 856.594 310.371 852.507 310.371 847.464C310.371 842.42 314.008 838.333 318.495 838.333C322.98 838.333 326.618 842.42 326.618 847.464ZM318.495 851.614C320.534 851.614 322.187 849.756 322.187 847.464C322.187 845.171 320.534 843.314 318.495 843.314C316.455 843.314 314.802 845.171 314.802 847.464C314.802 849.756 316.455 851.614 318.495 851.614Z" fill="black"/>
<path d="M472.84 794.342C472.84 796.634 471.187 798.492 469.147 798.492C467.108 798.492 465.455 796.634 465.455 794.342C465.455 792.049 467.108 790.191 469.147 790.191C471.187 790.191 472.84 792.049 472.84 794.342Z" fill="#F6F8F9"/>
<path fill-rule="evenodd" clip-rule="evenodd" d="M477.271 794.342C477.271 799.385 473.633 803.472 469.147 803.472C464.66 803.472 461.024 799.385 461.024 794.342C461.024 789.298 464.66 785.211 469.147 785.211C473.633 785.211 477.271 789.298 477.271 794.342ZM469.147 798.492C471.187 798.492 472.84 796.634 472.84 794.342C472.84 792.049 471.187 790.191 469.147 790.191C467.108 790.191 465.455 792.049 465.455 794.342C465.455 796.634 467.108 798.492 469.147 798.492Z" fill="black"/>
<path d="M644.17 842.483C644.17 844.776 642.518 846.634 640.478 846.634C638.438 846.634 636.785 844.776 636.785 842.483C636.785 840.191 638.438 838.333 640.478 838.333C642.518 838.333 644.17 840.191 644.17 842.483Z" fill="#F6F8F9"/>
<path fill-rule="evenodd" clip-rule="evenodd" d="M648.601 842.483C648.601 847.527 644.964 851.614 640.478 851.614C635.991 851.614 632.354 847.527 632.354 842.483C632.354 837.44 635.991 833.353 640.478 833.353C644.964 833.353 648.601 837.44 648.601 842.483ZM640.478 846.634C642.518 846.634 644.17 844.776 644.17 842.483C644.17 840.191 642.518 838.333 640.478 838.333C638.438 838.333 636.785 840.191 636.785 842.483C636.785 844.776 638.438 846.634 640.478 846.634Z" fill="black"/>
<path d="M285.558 244.03V240.046L302.1 234.733V88.9131L277.287 108.568L272.56 101.928L315.57 58.1023H341.093V234.733L357.635 240.046V244.03H285.558ZM394.208 244.03C394.208 226.499 396.335 211.006 400.589 197.548C405 183.914 410.278 172.315 416.422 162.753C422.566 153.014 430.601 142.035 440.526 129.817C449.192 119.193 455.967 110.162 460.85 102.725C465.892 95.1106 469.673 86.8767 472.193 78.0231H388.3C387.198 87.5851 384.519 95.5534 380.265 101.928C378.533 104.938 376.484 107.594 374.121 109.896H367.031V58.1023H479.282V70.0548C479.282 79.9708 477.865 89.1787 475.029 97.6783C472.351 106.178 468.097 117.156 462.268 130.614C456.596 143.186 451.949 154.342 448.325 164.081C444.86 173.821 441.866 185.507 439.345 199.141C436.825 212.6 435.564 227.562 435.564 244.03H394.208Z" fill="#7E3646"/>
<path d="M307.128 64.0825H331.231V239.714V240.443L331.925 240.666L347.773 245.755V248.01H277.696V245.755L293.544 240.666L294.238 240.443V239.714V93.8933V91.8255L292.617 93.1095L268.629 112.111L264.999 107.011L307.128 64.0825ZM370.537 106.409C368.919 109.22 367.022 111.708 364.849 113.877H359.169V64.0825H469.421V75.035C469.421 84.8549 468.017 93.9548 465.218 102.342L465.215 102.35L465.213 102.358C462.55 110.809 458.313 121.75 452.491 135.19C446.814 147.774 442.159 158.949 438.526 168.712L438.523 168.719L438.521 168.726C435.033 178.529 432.027 190.27 429.499 203.94C427.018 217.195 425.753 231.886 425.703 248.01H386.348C386.428 230.971 388.544 215.917 392.679 202.833C397.071 189.262 402.314 177.746 408.401 168.274L408.406 168.267C414.522 158.571 422.532 147.626 432.44 135.429C441.116 124.791 447.914 115.731 452.823 108.255C457.922 100.555 461.745 92.2278 464.293 83.277L464.655 82.0033H463.331H379.438H378.547L378.445 82.8888C377.356 92.3325 374.718 100.14 370.571 106.353L370.553 106.381L370.537 106.409Z" fill="#F40236" stroke="black" stroke-width="2"/>
</svg>
