<svg width="364" height="515" viewBox="0 0 364 515" fill="none" xmlns="http://www.w3.org/2000/svg">
<g clip-path="url(#clip0_18_3)">
<path d="M363.573 0.908569H0.318848V514.289H363.573V0.908569Z" fill="#5B2626"/>
<path d="M180.723 154.923L161.153 223.374L88.9919 219.095L154.427 257.599C141.38 286.324 115.533 344.385 116.511 346.829C117.49 349.274 165.23 298.751 186.227 278.99L283.461 346.829L228.423 264.933L299.361 185.481L209.465 223.374L180.723 154.923Z" fill="#FFC56F"/>
<path d="M235.15 156.145L226.588 167.146L213.746 162.868L222.307 173.869L219.25 183.648L228.423 176.314L238.819 187.926L235.15 173.869L247.38 165.313L235.15 167.146V156.145Z" fill="#FFA9CD"/>
<path d="M103.78 252.71L101.289 256.094L97.5535 254.778L100.044 258.164L99.1546 261.172L101.823 258.915L104.847 262.488L103.78 258.164L107.338 255.531L103.78 256.094V252.71Z" fill="#FFC56F"/>
<path d="M220.363 344.652L224.508 344.83L226.88 349.586L227.691 345.191L233.312 345.376L228.779 343.288L230.294 337.021L225.828 340.036L222.827 338.367L224.12 341.947L220.363 344.652Z" fill="#FFA9CD"/>
<path d="M79.0848 307.234L81.73 307.348L83.2441 310.383L83.7618 307.579L87.3495 307.696L84.4561 306.364L85.4233 302.364L82.573 304.288L80.6575 303.224L81.4829 305.508L79.0848 307.234Z" fill="#FFC56F"/>
<path d="M54.1342 272.878L81.6534 274.712L89.6034 256.377L94.4957 272.878L117.123 270.433L98.1649 285.101L104.892 308.326L89.6034 293.658L60.2495 306.492L75.538 287.546L54.1342 272.878Z" fill="#FFA9CD"/>
<path d="M207.93 345.187L209.448 336.601L203.95 333.475L209.31 332.502L209.313 325.308L213.281 331.767L220.819 330.446L215.681 334.75L218.715 344.413L213.277 338.961L207.93 345.187Z" fill="#FFC56F"/>
<path d="M274.062 262.488L280.78 269.181L289.867 265.637L284.731 274.297L292.634 281.383L284.731 279.415C282.887 281.646 279.199 286.265 279.199 286.895C279.199 287.524 277.355 280.596 276.433 277.841L266.949 274.297L276.433 273.116L274.062 262.488Z" fill="#FFA9CD"/>
<path d="M298.75 242.931L299.322 246.184H305.476L301.609 249.226L305.123 253.833L300.166 251.652L296.625 256.377L296.98 250.926L292.023 248.863L296.625 247.292L298.75 242.931Z" fill="#FFC56F"/>
<path d="M120.992 171.489L120.517 179.103L127.485 182.793L119.524 184.201L119.44 192.745L114.677 185.481C112.349 185.526 109.356 187.104 108.976 187.434C108.595 187.766 111.801 183.003 112.976 180.994L110.08 173.345L115.83 178.515L120.992 171.489Z" fill="#FFC56F"/>
<path d="M102.568 190.37L100.366 193.513L96.3303 192.815L99.6326 195.958L98.8988 200.149L101.467 197.704L106.971 199.102L104.036 196.657L107.338 192.466L103.302 193.863L102.568 190.37Z" fill="#FFA9CD"/>
<path d="M167.269 235.597C173.344 247.465 177.271 248.873 185.615 237.934" stroke="#050A26" stroke-width="2"/>
<path fill-rule="evenodd" clip-rule="evenodd" d="M170.658 220.761C156.793 243.179 129.202 239.871 123.85 209.928L173.763 214.746C173.494 215.377 173.215 215.992 172.928 216.594C174.597 216.367 176.219 216.312 177.855 216.458C180.096 216.658 182.299 217.23 184.634 218.186C184.58 217.88 184.529 217.572 184.48 217.262L234.494 220.904C222.145 250.833 193.27 249.893 185.653 222.687C182.565 221.124 180.016 220.332 177.528 220.11C175.388 219.919 173.204 220.142 170.658 220.761Z" fill="#050A26"/>
<mask id="mask0_18_3" style="mask-type:alpha" maskUnits="userSpaceOnUse" x="123" y="209" width="112" height="35">
<path fill-rule="evenodd" clip-rule="evenodd" d="M170.658 220.761C156.793 243.179 129.202 239.871 123.85 209.928L173.763 214.746C173.494 215.377 173.215 215.992 172.928 216.594C174.597 216.367 176.219 216.312 177.855 216.458C180.096 216.658 182.299 217.23 184.634 218.186C184.58 217.88 184.529 217.572 184.48 217.262L234.494 220.904C222.145 250.833 193.27 249.893 185.653 222.687C182.565 221.124 180.016 220.332 177.528 220.11C175.388 219.919 173.204 220.142 170.658 220.761Z" fill="#050A26"/>
</mask>
<g mask="url(#mask0_18_3)">
<path d="M223.31 218.681L218.495 214.914L196.909 242.468L201.724 246.236L223.31 218.681Z" fill="white" fill-opacity="0.9"/>
<path d="M163.379 211.251L158.564 207.483L136.978 235.038L141.793 238.806L163.379 211.251Z" fill="white" fill-opacity="0.9"/>
<path d="M155.265 208.729L153.672 207.483L132.086 235.038L133.678 236.284L155.265 208.729Z" fill="white" fill-opacity="0.9"/>
<path d="M228.649 219.73L227.057 218.484L205.47 246.039L207.063 247.285L228.649 219.73Z" fill="white" fill-opacity="0.9"/>
</g>
<path d="M104.681 98.1673C105.738 98.1673 107.118 98.9007 107.118 100.72V108.23H104.74V109.696H110.934V108.23H108.586V100.72C108.586 97.6686 106.267 96.7005 104.681 96.7005C102.773 96.7005 101.629 97.962 99.5446 100.221V92.3881H95.6992V93.8549H98.0769V108.23H95.6992V109.696H101.922V108.23H99.5446V102.304C102.186 99.6341 103.155 98.1673 104.681 98.1673ZM128.829 106.557L127.537 105.941C126.627 108.083 126.363 108.611 125.864 108.611C125.541 108.611 125.365 108.23 125.365 107.437V100.514C125.365 97.6393 121.93 96.7298 119.582 96.7298C117.615 96.7298 114.445 97.5806 114.445 99.9275C114.445 101.013 115.003 101.746 115.971 101.746C116.94 101.746 117.498 101.16 117.498 100.309C117.498 99.5461 116.617 98.93 116.089 99.1941C116.529 98.4607 118.231 98.1967 119.582 98.1967C120.991 98.1967 123.897 98.5487 123.897 100.514C123.897 101.834 123.046 102.157 119.523 102.245C116.353 102.333 113.329 103.448 113.359 106.323C113.388 109.022 115.325 110.078 117.586 110.078C120.051 110.078 121.725 109.168 123.897 107.437C123.839 109.315 124.807 110.078 125.864 110.078C127.067 110.078 127.713 109.374 128.829 106.557ZM123.897 102.802V105.619C121.519 107.672 119.875 108.611 117.615 108.611C115.854 108.611 114.826 107.878 114.826 106.264C114.826 104.504 116.94 103.741 119.494 103.712C122.106 103.682 123.017 103.301 123.897 102.802ZM131.106 112.923V114.39H138.151V112.923H135.128V107.203C136.272 108.816 138.063 110.078 140.088 110.078C143.699 110.078 146.135 107.144 146.135 103.418C146.135 99.6928 143.699 96.7005 140.088 96.7005C138.092 96.7005 136.302 97.962 135.128 99.5754C135.186 97.4046 134.247 96.7005 133.19 96.7005C131.987 96.7005 131.341 97.4046 130.225 100.221L131.517 100.837C132.427 98.6954 132.691 98.1673 133.19 98.1673C133.513 98.1673 133.689 98.5487 133.689 99.3408L133.66 112.923H131.106ZM135.128 105.061V101.717C136.771 99.8101 138.151 98.1673 140.088 98.1673C142.848 98.1673 144.697 100.426 144.668 103.418C144.638 106.323 142.877 108.611 140.088 108.611C138.063 108.611 136.742 106.968 135.128 105.061ZM148.707 112.923V114.39H155.752V112.923H152.729V107.203C153.874 108.816 155.664 110.078 157.69 110.078C161.3 110.078 163.737 107.144 163.737 103.418C163.737 99.6928 161.3 96.7005 157.69 96.7005C155.694 96.7005 153.903 97.962 152.729 99.5754C152.788 97.4046 151.848 96.7005 150.791 96.7005C149.588 96.7005 148.942 97.4046 147.827 100.221L149.118 100.837C150.028 98.6954 150.292 98.1673 150.791 98.1673C151.114 98.1673 151.29 98.5487 151.29 99.3408L151.261 112.923H148.707ZM152.729 105.061V101.717C154.373 99.8101 155.752 98.1673 157.69 98.1673C160.449 98.1673 162.298 100.426 162.269 103.418C162.239 106.323 160.478 108.611 157.69 108.611C155.664 108.611 154.343 106.968 152.729 105.061ZM166.162 111.105C166.162 113.51 167.747 114.772 169.596 114.772C171.299 114.772 172.943 114.302 174.821 109.696L179.4 98.5487H181.661V97.0819H175.526V98.5487H177.786L174.029 107.848L170.242 98.5487H172.502V97.0819H166.367V98.5487H168.628L173.177 109.696L172.648 110.87C171.886 112.601 170.947 113.334 169.772 113.334C168.187 113.334 167.571 112.249 167.659 110.987C167.923 111.486 168.393 111.662 169.009 111.633C169.743 111.603 170.301 111.046 170.301 110.048C170.301 109.11 169.479 108.464 168.481 108.464C167.219 108.464 166.162 109.638 166.162 111.105ZM201.128 92.3881V93.8549H203.741V109.696H205.209V107.203C206.383 108.816 208.173 110.078 210.169 110.078C213.78 110.078 216.216 107.085 216.216 103.36C216.216 99.6341 213.78 96.7005 210.169 96.7005C208.144 96.7005 206.353 97.962 205.209 99.5754V92.3881H201.128ZM205.209 105.061V101.717C206.823 99.8101 208.144 98.1673 210.169 98.1673C212.958 98.1673 214.749 100.456 214.749 103.36C214.778 106.352 212.929 108.611 210.169 108.611C208.232 108.611 206.852 106.968 205.209 105.061ZM229.824 93.8549V99.5754C228.679 97.962 226.889 96.7005 224.863 96.7005C221.253 96.7005 218.817 99.6341 218.817 103.36C218.817 107.085 221.253 110.078 224.863 110.078C226.859 110.078 228.65 108.816 229.824 107.203C229.766 109.374 230.705 110.078 231.762 110.078C232.965 110.078 233.611 109.374 234.726 106.557L233.435 105.941C232.525 108.083 232.261 108.611 231.762 108.611C231.439 108.611 231.263 108.23 231.263 107.437L231.292 92.3881H226.801V93.8549H229.824ZM229.824 101.717V105.061C228.18 106.968 226.801 108.611 224.863 108.611C222.104 108.611 220.255 106.352 220.284 103.36C220.314 100.456 222.075 98.1673 224.863 98.1673C226.889 98.1673 228.21 99.8101 229.824 101.717ZM252.034 106.557L250.742 105.941C249.833 108.083 249.568 108.611 249.069 108.611C248.746 108.611 248.57 108.23 248.57 107.437V100.514C248.57 97.6393 245.136 96.7298 242.788 96.7298C240.821 96.7298 237.651 97.5806 237.651 99.9275C237.651 101.013 238.208 101.746 239.177 101.746C240.146 101.746 240.703 101.16 240.703 100.309C240.703 99.5461 239.823 98.93 239.295 99.1941C239.735 98.4607 241.437 98.1967 242.788 98.1967C244.197 98.1967 247.103 98.5487 247.103 100.514C247.103 101.834 246.251 102.157 242.729 102.245C239.559 102.333 236.535 103.448 236.565 106.323C236.594 109.022 238.531 110.078 240.792 110.078C243.257 110.078 244.93 109.168 247.103 107.437C247.044 109.315 248.013 110.078 249.069 110.078C250.273 110.078 250.919 109.374 252.034 106.557ZM247.103 102.802V105.619C244.725 107.672 243.081 108.611 240.821 108.611C239.06 108.611 238.032 107.878 238.032 106.264C238.032 104.504 240.146 103.741 242.7 103.712C245.312 103.682 246.222 103.301 247.103 102.802ZM254.166 111.105C254.166 113.51 255.751 114.772 257.6 114.772C259.303 114.772 260.947 114.302 262.825 109.696L267.404 98.5487H269.665V97.0819H263.53V98.5487H265.79L262.033 107.848L258.246 98.5487H260.506V97.0819H254.371V98.5487H256.632L261.181 109.696L260.653 110.87C259.89 112.601 258.951 113.334 257.776 113.334C256.191 113.334 255.575 112.249 255.663 110.987C255.927 111.486 256.397 111.662 257.013 111.633C257.747 111.603 258.305 111.046 258.305 110.048C258.305 109.11 257.483 108.464 256.485 108.464C255.223 108.464 254.166 109.638 254.166 111.105Z" fill="white" fill-opacity="0.9"/>
<path d="M119.319 395.449L116.942 395.478V386.648C117.03 384.477 116.09 383.949 115.034 383.949C114.094 383.949 113.449 384.536 112.568 385.827L112.245 386.296L113.507 387C114.388 385.768 114.623 385.416 114.946 385.416C115.298 385.416 115.474 385.651 115.474 386.443V391.723C112.891 394.393 112.157 395.86 110.542 395.86C109.515 395.86 108.194 395.42 108.194 393.601V386.648C108.282 384.477 107.343 383.949 106.286 383.949C105.347 383.949 104.701 384.536 103.82 385.827L103.498 386.296L104.76 387C105.64 385.768 105.875 385.416 106.198 385.416C106.55 385.416 106.726 385.651 106.726 386.443V393.601C106.726 396.593 109.045 397.326 110.542 397.326C112.362 397.326 113.449 396.006 115.474 393.747V396.945L119.319 396.916V395.449ZM122.273 385.827L121.95 386.296L123.212 387C124.093 385.768 124.328 385.416 124.651 385.416C125.003 385.416 125.179 385.651 125.179 386.443V395.478H122.801V396.945H132.341V395.478H126.647V389.582C129.259 386.443 130.874 385.445 132.224 385.416C133.985 385.387 134.778 386.56 134.866 387.91C133.692 387.499 132.782 388.291 132.782 389.171C132.782 390.08 133.545 390.697 134.367 390.697C135.394 390.697 136.392 389.875 136.392 388.32C136.392 385.504 134.748 383.949 132.224 383.949C129.993 383.949 128.76 385.123 126.647 387.47V386.648C126.735 384.477 125.707 383.949 124.651 383.949C123.711 383.949 123.154 384.536 122.273 385.827ZM172.592 393.806L171.3 393.19C170.39 395.332 170.126 395.86 169.627 395.86C169.304 395.86 169.128 395.478 169.128 394.686V387.763C169.128 384.888 165.693 383.979 163.345 383.979C161.378 383.979 158.208 384.829 158.208 387.176C158.208 388.262 158.766 388.995 159.735 388.995C160.703 388.995 161.261 388.408 161.261 387.558C161.261 386.795 160.38 386.179 159.852 386.443C160.292 385.709 161.995 385.445 163.345 385.445C164.754 385.445 167.66 385.797 167.66 387.763C167.66 389.083 166.809 389.406 163.286 389.494C160.116 389.582 157.093 390.697 157.122 393.571C157.151 396.27 159.089 397.326 161.349 397.326C163.815 397.326 165.488 396.417 167.66 394.686C167.601 396.564 168.57 397.326 169.627 397.326C170.83 397.326 171.476 396.622 172.592 393.806ZM167.66 390.051V392.867C165.282 394.921 163.639 395.86 161.378 395.86C159.617 395.86 158.59 395.126 158.59 393.513C158.59 391.753 160.703 390.99 163.257 390.961C165.87 390.931 166.78 390.55 167.66 390.051ZM199.486 397.297C203.067 397.297 205.856 396.094 205.856 393.571C205.856 391.401 204.329 390.286 200.777 390.051L198.928 389.934C196.257 389.758 195.2 389.171 195.2 387.763C195.2 386.589 196.374 385.299 199.779 385.299C201.687 385.299 202.891 385.797 203.507 386.443C202.862 386.56 202.451 386.971 202.451 387.734C202.451 388.467 203.067 388.995 203.918 388.995C204.74 388.995 205.445 388.408 205.445 387.323C205.445 385.357 203.038 383.979 199.809 383.979C195.64 383.979 193.703 385.915 193.703 387.792C193.703 389.934 194.848 391.078 198.869 391.342L200.601 391.459C203.478 391.665 204.27 392.486 204.27 393.63C204.27 395.097 202.627 395.977 199.456 395.977C196.903 395.977 195.963 395.361 195.347 394.716C195.993 394.598 196.404 394.188 196.404 393.425C196.404 392.691 195.787 392.163 194.936 392.163C194.114 392.163 193.41 392.75 193.41 393.835C193.41 395.801 195.846 397.297 199.486 397.297ZM209.749 384.331V385.797H213.565V393.953C213.565 396.857 215.942 397.326 217.381 397.326C219.377 397.326 221.138 395.977 224.895 393.718L224.103 392.545C220.844 394.481 219.054 395.86 217.381 395.86C216.412 395.86 215.032 395.83 215.032 393.601V385.797H223.281V384.331H215.032V379.637H213.565V384.331H209.749ZM242.994 393.806L241.703 393.19C240.793 395.332 240.529 395.86 240.03 395.86C239.707 395.86 239.531 395.478 239.531 394.686V387.763C239.531 384.888 236.096 383.979 233.748 383.979C231.781 383.979 228.611 384.829 228.611 387.176C228.611 388.262 229.169 388.995 230.137 388.995C231.106 388.995 231.664 388.408 231.664 387.558C231.664 386.795 230.783 386.179 230.255 386.443C230.695 385.709 232.398 385.445 233.748 385.445C235.157 385.445 238.063 385.797 238.063 387.763C238.063 389.083 237.212 389.406 233.689 389.494C230.519 389.582 227.495 390.697 227.525 393.571C227.554 396.27 229.492 397.326 231.752 397.326C234.218 397.326 235.891 396.417 238.063 394.686C238.004 396.564 238.973 397.326 240.03 397.326C241.233 397.326 241.879 396.622 242.994 393.806ZM238.063 390.051V392.867C235.685 394.921 234.041 395.86 231.781 395.86C230.02 395.86 228.993 395.126 228.993 393.513C228.993 391.753 231.106 390.99 233.66 390.961C236.272 390.931 237.182 390.55 238.063 390.051ZM245.478 385.827L245.155 386.296L246.418 387C247.298 385.768 247.533 385.416 247.856 385.416C248.208 385.416 248.384 385.651 248.384 386.443V395.478H246.007V396.945H255.547V395.478H249.852V389.582C252.465 386.443 254.079 385.445 255.429 385.416C257.191 385.387 257.983 386.56 258.071 387.91C256.897 387.499 255.987 388.291 255.987 389.171C255.987 390.08 256.75 390.697 257.572 390.697C258.6 390.697 259.598 389.875 259.598 388.32C259.598 385.504 257.954 383.949 255.429 383.949C253.198 383.949 251.966 385.123 249.852 387.47V386.648C249.94 384.477 248.913 383.949 247.856 383.949C246.917 383.949 246.359 384.536 245.478 385.827Z" fill="white" fill-opacity="0.9"/>
</g>
<defs>
<clipPath id="clip0_18_3">
<rect width="363.254" height="513.381" fill="white" transform="translate(0.318848 0.908569)"/>
</clipPath>
</defs>
</svg>
