<svg width="404" height="401" viewBox="0 0 404 401" fill="none" xmlns="http://www.w3.org/2000/svg">
<g clip-path="url(#clip0_18_230)">
<path d="M180.04 140.681C194.676 149.325 209.868 160.686 224.335 175.479C253.839 205.881 267.584 238.203 274.066 257.168C265.83 255.008 254.478 251.568 241.281 246.049C221.136 237.488 196.752 223.966 173.252 202.441C137.432 169.803 120.079 134.124 112.168 114.36C125.514 117.161 151.576 123.885 180.04 140.681Z" fill="#F9B53F"/>
<path d="M395.184 253.969C396.381 249.805 393.988 245.409 389.833 244.13L357.613 234.688C353.449 233.482 349.053 235.884 347.772 240.048C346.577 244.203 348.978 248.608 353.133 249.889L385.353 259.33C386.067 259.562 386.875 259.646 387.589 259.646C391.03 259.646 394.145 257.411 395.184 253.969ZM331.551 61.0784L346.659 21.5597C348.181 17.479 346.177 12.9159 342.097 11.3949C338.025 9.79967 333.462 11.8771 331.95 15.9579L316.832 55.4766C315.321 59.5573 317.315 64.1204 321.395 65.6415C322.35 65.9567 323.315 66.1979 324.188 66.1979C327.312 66.1979 330.345 64.2781 331.551 61.0784ZM155.259 52.8427C158.94 50.5148 159.98 45.5529 157.66 41.9543L140.632 15.4756C138.313 11.7937 133.351 10.7549 129.753 13.0828C126.08 15.4014 125.041 20.354 127.36 23.9526L144.388 50.4406C145.9 52.7592 148.46 54.0391 151.02 54.0391C152.458 54.1132 153.894 53.7144 155.259 52.8427ZM202.986 225.561C201.464 225.561 199.953 225.163 198.59 224.207C194.991 221.805 194.035 216.844 196.428 213.245C202.429 204.286 215.218 188.445 232.887 183.326C253.839 177.324 273.427 183.001 292.375 188.445C297.485 189.882 302.289 191.32 307.158 192.443C317.797 195.003 328.991 197.005 338.182 194.047C348.181 190.848 356.732 182.361 363.762 174.441C366.646 171.167 371.683 170.926 374.882 173.801C378.156 176.685 378.397 181.72 375.522 184.921C367.044 194.446 356.573 204.769 342.978 209.081C330.104 213.161 316.359 210.844 303.486 207.727C298.293 206.446 293.089 205.001 288.054 203.479C270.468 198.443 253.913 193.638 237.283 198.359C227.852 201.087 217.778 209.647 209.543 221.88C208.021 224.282 205.545 225.561 202.986 225.561Z" fill="#F14947"/>
<path d="M317.397 294.527C321.636 293.571 324.354 289.323 323.389 285.086L318.992 265.646C318.038 261.407 313.799 258.765 309.561 259.645C305.322 260.61 302.605 264.849 303.56 269.086L307.966 288.526C308.764 292.208 312.038 294.684 315.636 294.684C316.193 294.768 316.832 294.684 317.397 294.527ZM402.14 154.686C404.941 151.319 404.543 146.366 401.185 143.565C395.824 139.002 386.791 133.243 374.242 131.323C359.931 129.079 348.254 133.16 342.579 135.803C338.664 137.639 336.903 142.36 338.739 146.283C340.584 150.206 345.296 151.96 349.219 150.122C353.291 148.203 361.61 145.318 371.84 146.923C380.716 148.286 387.189 152.441 391.03 155.724C392.467 157.005 394.304 157.56 396.065 157.56C398.384 157.56 400.62 156.605 402.14 154.686ZM173.25 210.36C170.849 210.36 168.529 209.322 167.009 207.327C164.376 203.888 165.015 198.924 168.447 196.282C184.121 184.123 194.035 170.684 197.709 156.281C202.105 139.16 197.393 123.959 192.356 107.877C186.922 90.3577 180.679 70.5196 186.922 47.0829C190.678 32.7538 198.348 19.482 209.627 7.63842C212.66 4.51291 217.621 4.35525 220.737 7.39728C223.853 10.4393 224.011 15.4012 220.979 18.5174C211.546 28.4411 205.147 39.4036 202.105 51.0802C197.068 70.1207 202.105 86.2027 207.382 103.157C212.826 120.685 218.503 138.761 212.983 160.204C208.346 178.122 196.595 194.446 178.046 208.765C176.608 209.888 174.929 210.36 173.25 210.36Z" fill="#446DB7"/>
<path d="M119.838 91.4798C120.803 87.2414 118.159 83.003 113.921 82.0385L89.2966 76.4366C85.058 75.4814 80.8287 78.1152 79.8642 82.363C78.909 86.6015 81.5429 90.84 85.7815 91.8045L110.406 97.3969C110.962 97.5639 111.602 97.5639 112.168 97.5639C115.766 97.5639 119.04 95.0783 119.838 91.4798ZM173.25 202.523C162.938 193.165 154.219 183.567 146.781 174.199C140.548 166.279 135.188 158.525 130.717 151.244C121.841 136.758 115.924 123.801 112.168 114.518L71.4706 217.966L61.2407 243.962L0 399.968L26.2937 386.289L48.7662 374.612L162.056 315.571L186.838 302.688L274.066 257.243C253.115 251.725 212.185 237.961 173.25 202.523ZM259.83 66.1976C257.354 66.1976 254.878 65.0012 253.356 62.7566C250.88 59.1581 251.761 54.2798 255.35 51.8035C258.717 49.4849 266.787 42.8443 269.188 31.1584C271.024 22.1994 268.548 14.7612 266.869 11.0792C265.108 7.08188 266.869 2.43536 270.867 0.682475C274.864 -1.07968 279.502 0.682475 281.254 4.67979C283.656 10.0404 287.338 21.077 284.612 34.3582C281.097 51.6365 269.263 61.4027 264.31 64.8435C262.946 65.7152 261.351 66.1976 259.83 66.1976Z" fill="#3BA27A"/>
<path d="M173.25 292.607C165.414 292.607 159.014 298.923 159.014 306.843C159.014 310.126 160.137 313.169 161.973 315.571L186.754 302.688C185.002 296.845 179.568 292.607 173.25 292.607ZM71.4706 217.966L61.2407 243.962C63.4017 245.325 65.878 246.049 68.5954 246.049C76.4326 246.049 82.8228 239.723 82.8228 231.803C82.8228 225.004 77.9443 219.245 71.4706 217.966ZM215.302 247.728C207.464 247.728 201.066 254.126 201.066 261.964C201.066 269.81 207.382 276.21 215.302 276.21C223.14 276.21 229.53 269.885 229.53 261.964C229.53 254.126 223.213 247.728 215.302 247.728ZM99.8511 278.445C92.014 278.445 85.6237 284.77 85.6237 292.69C85.6237 300.527 91.9399 306.927 99.8511 306.927C107.772 306.927 114.088 300.611 114.088 292.69C114.088 284.77 107.688 278.445 99.8511 278.445ZM34.5296 360.533C26.7018 360.533 20.3023 366.849 20.3023 374.769C20.3023 379.573 22.621 383.729 26.2196 386.372L48.7662 374.612C48.6827 366.765 42.3667 360.533 34.5296 360.533ZM130.717 151.162C126.08 153.48 122.88 158.284 122.88 163.886C122.88 171.722 129.196 178.122 137.108 178.122C140.864 178.122 144.388 176.602 146.864 174.199C140.548 166.279 135.188 158.525 130.717 151.162ZM365.608 88.1226C354.969 83.9583 333.304 78.1154 308.123 84.9972C275.745 93.8822 258.792 117.801 253.031 127.725C250.796 131.481 252.077 136.285 255.832 138.52C257.113 139.244 258.476 139.643 259.83 139.643C262.548 139.643 265.19 138.205 266.628 135.719C271.424 127.484 285.493 107.645 312.279 100.282C333.062 94.522 351.055 99.4839 359.849 102.841C363.929 104.446 368.482 102.359 370.077 98.3617C371.683 94.3644 369.679 89.7179 365.608 88.1226Z" fill="#F9B53F"/>
<path d="M316.516 288.684C317.073 288.527 317.397 288.044 317.231 287.487L312.362 266.684C312.195 266.129 311.722 265.805 311.156 265.971C310.6 266.128 310.284 266.611 310.441 267.168L315.32 287.97C315.394 288.443 315.793 288.768 316.275 288.768C316.359 288.684 316.434 288.684 316.516 288.684ZM151.742 47.5565C152.215 47.2411 152.383 46.6846 152.058 46.2024L134.789 18.7592C134.473 18.2769 133.908 18.2027 133.435 18.4438C132.952 18.7592 132.795 19.3156 133.11 19.7979L150.379 47.2411C150.538 47.5565 150.861 47.7233 151.177 47.7233C151.418 47.64 151.576 47.64 151.742 47.5565ZM258.79 131.166C263.827 122.921 278.537 102.842 306.045 94.0402C332.664 85.4057 355.851 92.5192 364.568 95.8858C365.042 96.0435 365.608 95.8023 365.849 95.3201C366.081 94.8378 365.765 94.1979 365.283 94.0402C354.256 89.7184 331.708 83.6435 305.479 92.1205C277.424 101.163 262.307 121.725 257.113 130.118C256.797 130.6 256.954 131.166 257.438 131.481C257.595 131.565 257.752 131.639 257.911 131.639C258.235 131.639 258.55 131.481 258.79 131.166ZM179.799 208.284C180.123 207.884 180.123 207.245 179.725 206.929C164.848 194.047 151.501 179.403 140.15 163.405C131.756 151.644 124.401 139.003 118.243 125.88C118.002 125.407 117.445 125.165 116.963 125.407C116.481 125.639 116.239 126.204 116.481 126.687C122.722 139.884 130.077 152.6 138.545 164.527C149.981 180.682 163.411 195.484 178.445 208.367C178.602 208.524 178.843 208.608 179.084 208.608C179.325 208.608 179.641 208.524 179.799 208.284ZM204.506 271.248C204.988 270.923 205.063 270.283 204.747 269.885C200.51 263.967 201.705 255.648 207.464 251.411C210.266 249.323 213.939 248.442 217.538 249.082C221.22 249.721 224.41 251.809 226.497 254.925C226.812 255.407 227.368 255.491 227.851 255.166C228.333 254.85 228.407 254.285 228.092 253.803C225.689 250.205 222.091 247.885 217.862 247.163C213.782 246.447 209.543 247.404 206.269 249.805C199.712 254.684 198.274 264.208 203.143 271.007C203.311 271.248 203.625 271.405 203.95 271.405C204.108 271.405 204.349 271.323 204.506 271.248ZM21.4986 380.372C21.9809 380.214 22.3056 379.648 22.1386 379.092C20.228 373.165 22.4631 366.692 27.5829 363.493C32.2202 360.608 38.295 360.933 42.6913 364.291C43.09 364.605 43.73 364.531 44.0547 364.132C44.37 363.734 44.2865 363.094 43.8877 362.769C38.7774 358.929 31.8214 358.53 26.544 361.888C20.6269 365.57 18.067 372.933 20.3022 379.807C20.4692 380.214 20.8679 380.53 21.2667 380.53C21.2667 380.372 21.3409 380.372 21.4986 380.372ZM99.8511 307.808C99.2947 307.808 98.8957 307.326 98.8957 306.844C98.8957 306.288 99.378 305.888 99.8511 305.888C107.132 305.888 113.049 299.972 113.049 292.691C113.049 285.41 107.132 279.484 99.8511 279.484C99.2947 279.484 98.8957 279.011 98.8957 278.529C98.8957 278.046 99.378 277.564 99.8511 277.564C108.254 277.564 115.043 284.372 115.043 292.764C115.043 301.01 108.254 307.808 99.8511 307.808Z" fill="#3A5471"/>
</g>
<defs>
<clipPath id="clip0_18_230">
<rect width="404" height="401" fill="white"/>
</clipPath>
</defs>
</svg>
